G75*
%MOIN*%
%OFA0B0*%
%FSLAX25Y25*%
%IPPOS*%
%LPD*%
%AMOC8*
5,1,8,0,0,1.08239X$1,22.5*
%
%ADD10C,0.00000*%
%ADD11C,0.00400*%
%ADD12C,0.00600*%
%ADD13C,0.01000*%
%ADD14C,0.00500*%
%ADD15R,0.02000X0.10000*%
%ADD16R,0.02400X0.03400*%
%ADD17C,0.00700*%
%ADD18C,0.01600*%
%ADD19C,0.00800*%
D10*
X0008500Y0001800D02*
X0008500Y0198650D01*
X0205350Y0198650D01*
X0205350Y0001800D01*
X0008500Y0001800D01*
D11*
X0040373Y0153457D02*
X0039606Y0154224D01*
X0040373Y0153457D02*
X0041140Y0153457D01*
X0041907Y0154224D01*
X0041907Y0158061D01*
X0041140Y0158061D02*
X0042675Y0158061D01*
X0044209Y0156526D02*
X0045744Y0158061D01*
X0045744Y0153457D01*
X0044209Y0153457D02*
X0047279Y0153457D01*
X0093700Y0192767D02*
X0094467Y0192000D01*
X0096002Y0192000D01*
X0096769Y0192767D01*
X0096769Y0193535D01*
X0096002Y0194302D01*
X0094467Y0194302D01*
X0093700Y0195069D01*
X0093700Y0195837D01*
X0094467Y0196604D01*
X0096002Y0196604D01*
X0096769Y0195837D01*
X0098304Y0196604D02*
X0098304Y0192000D01*
X0101373Y0192000D01*
X0102908Y0192000D02*
X0104442Y0192000D01*
X0103675Y0192000D02*
X0103675Y0196604D01*
X0102908Y0196604D02*
X0104442Y0196604D01*
X0105977Y0196604D02*
X0108279Y0196604D01*
X0109046Y0195837D01*
X0109046Y0192767D01*
X0108279Y0192000D01*
X0105977Y0192000D01*
X0105977Y0196604D01*
X0110581Y0196604D02*
X0110581Y0192000D01*
X0113650Y0192000D01*
X0112116Y0194302D02*
X0110581Y0194302D01*
X0110581Y0196604D02*
X0113650Y0196604D01*
X0105977Y0202000D02*
X0102908Y0202000D01*
X0105977Y0205069D01*
X0105977Y0205837D01*
X0105210Y0206604D01*
X0103675Y0206604D01*
X0102908Y0205837D01*
X0101373Y0205837D02*
X0100606Y0206604D01*
X0099071Y0206604D01*
X0098304Y0205837D01*
X0098304Y0205069D01*
X0099071Y0204302D01*
X0100606Y0204302D01*
X0101373Y0203535D01*
X0101373Y0202767D01*
X0100606Y0202000D01*
X0099071Y0202000D01*
X0098304Y0202767D01*
X0096769Y0202767D02*
X0096769Y0206604D01*
X0093700Y0206604D02*
X0093700Y0202767D01*
X0094467Y0202000D01*
X0096002Y0202000D01*
X0096769Y0202767D01*
X0099839Y0201233D02*
X0099839Y0207371D01*
X0158700Y0191604D02*
X0158700Y0187000D01*
X0161002Y0187000D01*
X0161769Y0187767D01*
X0161769Y0188535D01*
X0161002Y0189302D01*
X0158700Y0189302D01*
X0158700Y0191604D02*
X0161002Y0191604D01*
X0161769Y0190837D01*
X0161769Y0190069D01*
X0161002Y0189302D01*
X0163304Y0190069D02*
X0163304Y0187000D01*
X0163304Y0188535D02*
X0164839Y0190069D01*
X0165606Y0190069D01*
X0167141Y0190069D02*
X0167908Y0190069D01*
X0167908Y0187000D01*
X0167141Y0187000D02*
X0168675Y0187000D01*
X0170210Y0187767D02*
X0170977Y0188535D01*
X0173279Y0188535D01*
X0173279Y0189302D02*
X0173279Y0187000D01*
X0170977Y0187000D01*
X0170210Y0187767D01*
X0170977Y0190069D02*
X0172512Y0190069D01*
X0173279Y0189302D01*
X0174814Y0190069D02*
X0174814Y0187000D01*
X0177883Y0187000D02*
X0177883Y0189302D01*
X0177116Y0190069D01*
X0174814Y0190069D01*
X0167908Y0191604D02*
X0167908Y0192371D01*
X0165606Y0181604D02*
X0166373Y0180837D01*
X0166373Y0180069D01*
X0165606Y0179302D01*
X0166373Y0178535D01*
X0166373Y0177767D01*
X0165606Y0177000D01*
X0164071Y0177000D01*
X0163304Y0177767D01*
X0161769Y0177000D02*
X0158700Y0179302D01*
X0161769Y0181604D01*
X0163304Y0180837D02*
X0164071Y0181604D01*
X0165606Y0181604D01*
X0165606Y0179302D02*
X0164839Y0179302D01*
X0172512Y0177767D02*
X0173279Y0177000D01*
X0174046Y0177000D01*
X0174814Y0177767D01*
X0174814Y0181604D01*
X0175581Y0181604D02*
X0174046Y0181604D01*
X0177116Y0179302D02*
X0177116Y0177767D01*
X0177883Y0177000D01*
X0179418Y0177000D01*
X0180185Y0178535D02*
X0177116Y0178535D01*
X0177116Y0179302D02*
X0177883Y0180069D01*
X0179418Y0180069D01*
X0180185Y0179302D01*
X0180185Y0178535D01*
X0181720Y0179302D02*
X0182487Y0180069D01*
X0184789Y0180069D01*
X0186324Y0179302D02*
X0187091Y0180069D01*
X0189393Y0180069D01*
X0190927Y0180069D02*
X0191695Y0180069D01*
X0191695Y0177000D01*
X0192462Y0177000D02*
X0190927Y0177000D01*
X0189393Y0177767D02*
X0188626Y0178535D01*
X0187091Y0178535D01*
X0186324Y0179302D01*
X0184789Y0177767D02*
X0184022Y0178535D01*
X0182487Y0178535D01*
X0181720Y0179302D01*
X0181720Y0177000D02*
X0184022Y0177000D01*
X0184789Y0177767D01*
X0186324Y0177000D02*
X0188626Y0177000D01*
X0189393Y0177767D01*
X0191695Y0181604D02*
X0191695Y0182371D01*
X0193997Y0179302D02*
X0194764Y0180069D01*
X0196299Y0180069D01*
X0197066Y0179302D01*
X0197066Y0178535D01*
X0193997Y0178535D01*
X0193997Y0179302D02*
X0193997Y0177767D01*
X0194764Y0177000D01*
X0196299Y0177000D01*
X0195531Y0187000D02*
X0193997Y0187000D01*
X0193229Y0187767D01*
X0193229Y0189302D01*
X0193997Y0190069D01*
X0195531Y0190069D01*
X0196299Y0189302D01*
X0196299Y0188535D01*
X0193229Y0188535D01*
X0191695Y0187767D02*
X0191695Y0189302D01*
X0190927Y0190069D01*
X0189393Y0190069D01*
X0188626Y0189302D01*
X0188626Y0187767D01*
X0189393Y0187000D01*
X0190927Y0187000D01*
X0191695Y0187767D01*
X0187091Y0187767D02*
X0186324Y0187000D01*
X0184789Y0187000D01*
X0184022Y0187767D01*
X0184789Y0189302D02*
X0186324Y0189302D01*
X0187091Y0188535D01*
X0187091Y0187767D01*
X0184789Y0189302D02*
X0184022Y0190069D01*
X0184022Y0190837D01*
X0184789Y0191604D01*
X0186324Y0191604D01*
X0187091Y0190837D01*
X0197833Y0190069D02*
X0199368Y0190069D01*
X0198601Y0190837D02*
X0198601Y0187767D01*
X0199368Y0187000D01*
X0200903Y0187000D02*
X0202437Y0187000D01*
X0201670Y0187000D02*
X0201670Y0190069D01*
X0200903Y0190069D01*
X0201670Y0191604D02*
X0201670Y0192371D01*
X0203972Y0191604D02*
X0203972Y0187000D01*
X0203972Y0188535D02*
X0206274Y0190069D01*
X0207809Y0190069D02*
X0210110Y0190069D01*
X0210878Y0189302D01*
X0210878Y0187000D01*
X0212412Y0187767D02*
X0212412Y0189302D01*
X0213180Y0190069D01*
X0214714Y0190069D01*
X0215482Y0189302D01*
X0215482Y0187767D01*
X0214714Y0187000D01*
X0213180Y0187000D01*
X0212412Y0187767D01*
X0207809Y0187000D02*
X0207809Y0190069D01*
X0206274Y0187000D02*
X0203972Y0188535D01*
D12*
X0182407Y0173505D02*
X0182407Y0172438D01*
X0178136Y0168168D01*
X0178136Y0167100D01*
X0175961Y0167100D02*
X0171691Y0167100D01*
X0173826Y0167100D02*
X0173826Y0173505D01*
X0171691Y0171370D01*
X0169516Y0172438D02*
X0169516Y0168168D01*
X0168448Y0167100D01*
X0166313Y0167100D01*
X0165245Y0168168D01*
X0169516Y0172438D01*
X0168448Y0173505D01*
X0166313Y0173505D01*
X0165245Y0172438D01*
X0165245Y0168168D01*
X0163070Y0167100D02*
X0158800Y0167100D01*
X0163070Y0171370D01*
X0163070Y0172438D01*
X0162003Y0173505D01*
X0159868Y0173505D01*
X0158800Y0172438D01*
X0143500Y0175300D02*
X0143500Y0158300D01*
X0143498Y0158240D01*
X0143493Y0158179D01*
X0143484Y0158120D01*
X0143471Y0158061D01*
X0143455Y0158002D01*
X0143435Y0157945D01*
X0143412Y0157890D01*
X0143385Y0157835D01*
X0143356Y0157783D01*
X0143323Y0157732D01*
X0143287Y0157683D01*
X0143249Y0157637D01*
X0143207Y0157593D01*
X0143163Y0157551D01*
X0143117Y0157513D01*
X0143068Y0157477D01*
X0143017Y0157444D01*
X0142965Y0157415D01*
X0142910Y0157388D01*
X0142855Y0157365D01*
X0142798Y0157345D01*
X0142739Y0157329D01*
X0142680Y0157316D01*
X0142621Y0157307D01*
X0142560Y0157302D01*
X0142500Y0157300D01*
X0134500Y0157300D01*
X0134440Y0157302D01*
X0134379Y0157307D01*
X0134320Y0157316D01*
X0134261Y0157329D01*
X0134202Y0157345D01*
X0134145Y0157365D01*
X0134090Y0157388D01*
X0134035Y0157415D01*
X0133983Y0157444D01*
X0133932Y0157477D01*
X0133883Y0157513D01*
X0133837Y0157551D01*
X0133793Y0157593D01*
X0133751Y0157637D01*
X0133713Y0157683D01*
X0133677Y0157732D01*
X0133644Y0157783D01*
X0133615Y0157835D01*
X0133588Y0157890D01*
X0133565Y0157945D01*
X0133545Y0158002D01*
X0133529Y0158061D01*
X0133516Y0158120D01*
X0133507Y0158179D01*
X0133502Y0158240D01*
X0133500Y0158300D01*
X0133500Y0175300D01*
X0133502Y0175360D01*
X0133507Y0175421D01*
X0133516Y0175480D01*
X0133529Y0175539D01*
X0133545Y0175598D01*
X0133565Y0175655D01*
X0133588Y0175710D01*
X0133615Y0175765D01*
X0133644Y0175817D01*
X0133677Y0175868D01*
X0133713Y0175917D01*
X0133751Y0175963D01*
X0133793Y0176007D01*
X0133837Y0176049D01*
X0133883Y0176087D01*
X0133932Y0176123D01*
X0133983Y0176156D01*
X0134035Y0176185D01*
X0134090Y0176212D01*
X0134145Y0176235D01*
X0134202Y0176255D01*
X0134261Y0176271D01*
X0134320Y0176284D01*
X0134379Y0176293D01*
X0134440Y0176298D01*
X0134500Y0176300D01*
X0142500Y0176300D01*
X0142500Y0177300D02*
X0134500Y0177300D01*
X0134440Y0177302D01*
X0134379Y0177307D01*
X0134320Y0177316D01*
X0134261Y0177329D01*
X0134202Y0177345D01*
X0134145Y0177365D01*
X0134090Y0177388D01*
X0134035Y0177415D01*
X0133983Y0177444D01*
X0133932Y0177477D01*
X0133883Y0177513D01*
X0133837Y0177551D01*
X0133793Y0177593D01*
X0133751Y0177637D01*
X0133713Y0177683D01*
X0133677Y0177732D01*
X0133644Y0177783D01*
X0133615Y0177835D01*
X0133588Y0177890D01*
X0133565Y0177945D01*
X0133545Y0178002D01*
X0133529Y0178061D01*
X0133516Y0178120D01*
X0133507Y0178179D01*
X0133502Y0178240D01*
X0133500Y0178300D01*
X0133500Y0195300D01*
X0133502Y0195360D01*
X0133507Y0195421D01*
X0133516Y0195480D01*
X0133529Y0195539D01*
X0133545Y0195598D01*
X0133565Y0195655D01*
X0133588Y0195710D01*
X0133615Y0195765D01*
X0133644Y0195817D01*
X0133677Y0195868D01*
X0133713Y0195917D01*
X0133751Y0195963D01*
X0133793Y0196007D01*
X0133837Y0196049D01*
X0133883Y0196087D01*
X0133932Y0196123D01*
X0133983Y0196156D01*
X0134035Y0196185D01*
X0134090Y0196212D01*
X0134145Y0196235D01*
X0134202Y0196255D01*
X0134261Y0196271D01*
X0134320Y0196284D01*
X0134379Y0196293D01*
X0134440Y0196298D01*
X0134500Y0196300D01*
X0142500Y0196300D01*
X0142560Y0196298D01*
X0142621Y0196293D01*
X0142680Y0196284D01*
X0142739Y0196271D01*
X0142798Y0196255D01*
X0142855Y0196235D01*
X0142910Y0196212D01*
X0142965Y0196185D01*
X0143017Y0196156D01*
X0143068Y0196123D01*
X0143117Y0196087D01*
X0143163Y0196049D01*
X0143207Y0196007D01*
X0143249Y0195963D01*
X0143287Y0195917D01*
X0143323Y0195868D01*
X0143356Y0195817D01*
X0143385Y0195765D01*
X0143412Y0195710D01*
X0143435Y0195655D01*
X0143455Y0195598D01*
X0143471Y0195539D01*
X0143484Y0195480D01*
X0143493Y0195421D01*
X0143498Y0195360D01*
X0143500Y0195300D01*
X0143500Y0178300D01*
X0143498Y0178240D01*
X0143493Y0178179D01*
X0143484Y0178120D01*
X0143471Y0178061D01*
X0143455Y0178002D01*
X0143435Y0177945D01*
X0143412Y0177890D01*
X0143385Y0177835D01*
X0143356Y0177783D01*
X0143323Y0177732D01*
X0143287Y0177683D01*
X0143249Y0177637D01*
X0143207Y0177593D01*
X0143163Y0177551D01*
X0143117Y0177513D01*
X0143068Y0177477D01*
X0143017Y0177444D01*
X0142965Y0177415D01*
X0142910Y0177388D01*
X0142855Y0177365D01*
X0142798Y0177345D01*
X0142739Y0177329D01*
X0142680Y0177316D01*
X0142621Y0177307D01*
X0142560Y0177302D01*
X0142500Y0177300D01*
X0142500Y0176300D02*
X0142560Y0176298D01*
X0142621Y0176293D01*
X0142680Y0176284D01*
X0142739Y0176271D01*
X0142798Y0176255D01*
X0142855Y0176235D01*
X0142910Y0176212D01*
X0142965Y0176185D01*
X0143017Y0176156D01*
X0143068Y0176123D01*
X0143117Y0176087D01*
X0143163Y0176049D01*
X0143207Y0176007D01*
X0143249Y0175963D01*
X0143287Y0175917D01*
X0143323Y0175868D01*
X0143356Y0175817D01*
X0143385Y0175765D01*
X0143412Y0175710D01*
X0143435Y0175655D01*
X0143455Y0175598D01*
X0143471Y0175539D01*
X0143484Y0175480D01*
X0143493Y0175421D01*
X0143498Y0175360D01*
X0143500Y0175300D01*
X0138500Y0168300D02*
X0138500Y0167800D01*
X0138500Y0165800D02*
X0138500Y0165300D01*
X0134500Y0156300D02*
X0142500Y0156300D01*
X0142560Y0156298D01*
X0142621Y0156293D01*
X0142680Y0156284D01*
X0142739Y0156271D01*
X0142798Y0156255D01*
X0142855Y0156235D01*
X0142910Y0156212D01*
X0142965Y0156185D01*
X0143017Y0156156D01*
X0143068Y0156123D01*
X0143117Y0156087D01*
X0143163Y0156049D01*
X0143207Y0156007D01*
X0143249Y0155963D01*
X0143287Y0155917D01*
X0143323Y0155868D01*
X0143356Y0155817D01*
X0143385Y0155765D01*
X0143412Y0155710D01*
X0143435Y0155655D01*
X0143455Y0155598D01*
X0143471Y0155539D01*
X0143484Y0155480D01*
X0143493Y0155421D01*
X0143498Y0155360D01*
X0143500Y0155300D01*
X0143500Y0138300D01*
X0143498Y0138240D01*
X0143493Y0138179D01*
X0143484Y0138120D01*
X0143471Y0138061D01*
X0143455Y0138002D01*
X0143435Y0137945D01*
X0143412Y0137890D01*
X0143385Y0137835D01*
X0143356Y0137783D01*
X0143323Y0137732D01*
X0143287Y0137683D01*
X0143249Y0137637D01*
X0143207Y0137593D01*
X0143163Y0137551D01*
X0143117Y0137513D01*
X0143068Y0137477D01*
X0143017Y0137444D01*
X0142965Y0137415D01*
X0142910Y0137388D01*
X0142855Y0137365D01*
X0142798Y0137345D01*
X0142739Y0137329D01*
X0142680Y0137316D01*
X0142621Y0137307D01*
X0142560Y0137302D01*
X0142500Y0137300D01*
X0134500Y0137300D01*
X0134440Y0137302D01*
X0134379Y0137307D01*
X0134320Y0137316D01*
X0134261Y0137329D01*
X0134202Y0137345D01*
X0134145Y0137365D01*
X0134090Y0137388D01*
X0134035Y0137415D01*
X0133983Y0137444D01*
X0133932Y0137477D01*
X0133883Y0137513D01*
X0133837Y0137551D01*
X0133793Y0137593D01*
X0133751Y0137637D01*
X0133713Y0137683D01*
X0133677Y0137732D01*
X0133644Y0137783D01*
X0133615Y0137835D01*
X0133588Y0137890D01*
X0133565Y0137945D01*
X0133545Y0138002D01*
X0133529Y0138061D01*
X0133516Y0138120D01*
X0133507Y0138179D01*
X0133502Y0138240D01*
X0133500Y0138300D01*
X0133500Y0155300D01*
X0133502Y0155360D01*
X0133507Y0155421D01*
X0133516Y0155480D01*
X0133529Y0155539D01*
X0133545Y0155598D01*
X0133565Y0155655D01*
X0133588Y0155710D01*
X0133615Y0155765D01*
X0133644Y0155817D01*
X0133677Y0155868D01*
X0133713Y0155917D01*
X0133751Y0155963D01*
X0133793Y0156007D01*
X0133837Y0156049D01*
X0133883Y0156087D01*
X0133932Y0156123D01*
X0133983Y0156156D01*
X0134035Y0156185D01*
X0134090Y0156212D01*
X0134145Y0156235D01*
X0134202Y0156255D01*
X0134261Y0156271D01*
X0134320Y0156284D01*
X0134379Y0156293D01*
X0134440Y0156298D01*
X0134500Y0156300D01*
X0128500Y0158300D02*
X0128500Y0175300D01*
X0128498Y0175360D01*
X0128493Y0175421D01*
X0128484Y0175480D01*
X0128471Y0175539D01*
X0128455Y0175598D01*
X0128435Y0175655D01*
X0128412Y0175710D01*
X0128385Y0175765D01*
X0128356Y0175817D01*
X0128323Y0175868D01*
X0128287Y0175917D01*
X0128249Y0175963D01*
X0128207Y0176007D01*
X0128163Y0176049D01*
X0128117Y0176087D01*
X0128068Y0176123D01*
X0128017Y0176156D01*
X0127965Y0176185D01*
X0127910Y0176212D01*
X0127855Y0176235D01*
X0127798Y0176255D01*
X0127739Y0176271D01*
X0127680Y0176284D01*
X0127621Y0176293D01*
X0127560Y0176298D01*
X0127500Y0176300D01*
X0119500Y0176300D01*
X0119440Y0176298D01*
X0119379Y0176293D01*
X0119320Y0176284D01*
X0119261Y0176271D01*
X0119202Y0176255D01*
X0119145Y0176235D01*
X0119090Y0176212D01*
X0119035Y0176185D01*
X0118983Y0176156D01*
X0118932Y0176123D01*
X0118883Y0176087D01*
X0118837Y0176049D01*
X0118793Y0176007D01*
X0118751Y0175963D01*
X0118713Y0175917D01*
X0118677Y0175868D01*
X0118644Y0175817D01*
X0118615Y0175765D01*
X0118588Y0175710D01*
X0118565Y0175655D01*
X0118545Y0175598D01*
X0118529Y0175539D01*
X0118516Y0175480D01*
X0118507Y0175421D01*
X0118502Y0175360D01*
X0118500Y0175300D01*
X0118500Y0158300D01*
X0118502Y0158240D01*
X0118507Y0158179D01*
X0118516Y0158120D01*
X0118529Y0158061D01*
X0118545Y0158002D01*
X0118565Y0157945D01*
X0118588Y0157890D01*
X0118615Y0157835D01*
X0118644Y0157783D01*
X0118677Y0157732D01*
X0118713Y0157683D01*
X0118751Y0157637D01*
X0118793Y0157593D01*
X0118837Y0157551D01*
X0118883Y0157513D01*
X0118932Y0157477D01*
X0118983Y0157444D01*
X0119035Y0157415D01*
X0119090Y0157388D01*
X0119145Y0157365D01*
X0119202Y0157345D01*
X0119261Y0157329D01*
X0119320Y0157316D01*
X0119379Y0157307D01*
X0119440Y0157302D01*
X0119500Y0157300D01*
X0127500Y0157300D01*
X0127560Y0157302D01*
X0127621Y0157307D01*
X0127680Y0157316D01*
X0127739Y0157329D01*
X0127798Y0157345D01*
X0127855Y0157365D01*
X0127910Y0157388D01*
X0127965Y0157415D01*
X0128017Y0157444D01*
X0128068Y0157477D01*
X0128117Y0157513D01*
X0128163Y0157551D01*
X0128207Y0157593D01*
X0128249Y0157637D01*
X0128287Y0157683D01*
X0128323Y0157732D01*
X0128356Y0157783D01*
X0128385Y0157835D01*
X0128412Y0157890D01*
X0128435Y0157945D01*
X0128455Y0158002D01*
X0128471Y0158061D01*
X0128484Y0158120D01*
X0128493Y0158179D01*
X0128498Y0158240D01*
X0128500Y0158300D01*
X0123500Y0165300D02*
X0123500Y0165800D01*
X0123500Y0167800D02*
X0123500Y0168300D01*
X0118500Y0151800D02*
X0113500Y0151800D01*
X0113498Y0151660D01*
X0113492Y0151520D01*
X0113482Y0151380D01*
X0113469Y0151240D01*
X0113451Y0151101D01*
X0113429Y0150962D01*
X0113404Y0150825D01*
X0113375Y0150687D01*
X0113342Y0150551D01*
X0113305Y0150416D01*
X0113264Y0150282D01*
X0113219Y0150149D01*
X0113171Y0150017D01*
X0113119Y0149887D01*
X0113064Y0149758D01*
X0113005Y0149631D01*
X0112942Y0149505D01*
X0112876Y0149381D01*
X0112807Y0149260D01*
X0112734Y0149140D01*
X0112657Y0149022D01*
X0112578Y0148907D01*
X0112495Y0148793D01*
X0112409Y0148683D01*
X0112320Y0148574D01*
X0112228Y0148468D01*
X0112133Y0148365D01*
X0112036Y0148264D01*
X0111935Y0148167D01*
X0111832Y0148072D01*
X0111726Y0147980D01*
X0111617Y0147891D01*
X0111507Y0147805D01*
X0111393Y0147722D01*
X0111278Y0147643D01*
X0111160Y0147566D01*
X0111040Y0147493D01*
X0110919Y0147424D01*
X0110795Y0147358D01*
X0110669Y0147295D01*
X0110542Y0147236D01*
X0110413Y0147181D01*
X0110283Y0147129D01*
X0110151Y0147081D01*
X0110018Y0147036D01*
X0109884Y0146995D01*
X0109749Y0146958D01*
X0109613Y0146925D01*
X0109475Y0146896D01*
X0109338Y0146871D01*
X0109199Y0146849D01*
X0109060Y0146831D01*
X0108920Y0146818D01*
X0108780Y0146808D01*
X0108640Y0146802D01*
X0108500Y0146800D01*
X0108360Y0146802D01*
X0108220Y0146808D01*
X0108080Y0146818D01*
X0107940Y0146831D01*
X0107801Y0146849D01*
X0107662Y0146871D01*
X0107525Y0146896D01*
X0107387Y0146925D01*
X0107251Y0146958D01*
X0107116Y0146995D01*
X0106982Y0147036D01*
X0106849Y0147081D01*
X0106717Y0147129D01*
X0106587Y0147181D01*
X0106458Y0147236D01*
X0106331Y0147295D01*
X0106205Y0147358D01*
X0106081Y0147424D01*
X0105960Y0147493D01*
X0105840Y0147566D01*
X0105722Y0147643D01*
X0105607Y0147722D01*
X0105493Y0147805D01*
X0105383Y0147891D01*
X0105274Y0147980D01*
X0105168Y0148072D01*
X0105065Y0148167D01*
X0104964Y0148264D01*
X0104867Y0148365D01*
X0104772Y0148468D01*
X0104680Y0148574D01*
X0104591Y0148683D01*
X0104505Y0148793D01*
X0104422Y0148907D01*
X0104343Y0149022D01*
X0104266Y0149140D01*
X0104193Y0149260D01*
X0104124Y0149381D01*
X0104058Y0149505D01*
X0103995Y0149631D01*
X0103936Y0149758D01*
X0103881Y0149887D01*
X0103829Y0150017D01*
X0103781Y0150149D01*
X0103736Y0150282D01*
X0103695Y0150416D01*
X0103658Y0150551D01*
X0103625Y0150687D01*
X0103596Y0150825D01*
X0103571Y0150962D01*
X0103549Y0151101D01*
X0103531Y0151240D01*
X0103518Y0151380D01*
X0103508Y0151520D01*
X0103502Y0151660D01*
X0103500Y0151800D01*
X0098500Y0151800D01*
X0098500Y0151300D02*
X0098500Y0011800D01*
X0118500Y0011800D01*
X0118500Y0151800D01*
X0138500Y0148300D02*
X0138500Y0147800D01*
X0138500Y0145800D02*
X0138500Y0145300D01*
X0174000Y0123300D02*
X0174000Y0121800D01*
X0174500Y0121300D01*
X0174500Y0102300D01*
X0174000Y0101800D01*
X0174000Y0100300D01*
X0174002Y0100240D01*
X0174007Y0100179D01*
X0174016Y0100120D01*
X0174029Y0100061D01*
X0174045Y0100002D01*
X0174065Y0099945D01*
X0174088Y0099890D01*
X0174115Y0099835D01*
X0174144Y0099783D01*
X0174177Y0099732D01*
X0174213Y0099683D01*
X0174251Y0099637D01*
X0174293Y0099593D01*
X0174337Y0099551D01*
X0174383Y0099513D01*
X0174432Y0099477D01*
X0174483Y0099444D01*
X0174535Y0099415D01*
X0174590Y0099388D01*
X0174645Y0099365D01*
X0174702Y0099345D01*
X0174761Y0099329D01*
X0174820Y0099316D01*
X0174879Y0099307D01*
X0174940Y0099302D01*
X0175000Y0099300D01*
X0182000Y0099300D01*
X0182060Y0099302D01*
X0182121Y0099307D01*
X0182180Y0099316D01*
X0182239Y0099329D01*
X0182298Y0099345D01*
X0182355Y0099365D01*
X0182410Y0099388D01*
X0182465Y0099415D01*
X0182517Y0099444D01*
X0182568Y0099477D01*
X0182617Y0099513D01*
X0182663Y0099551D01*
X0182707Y0099593D01*
X0182749Y0099637D01*
X0182787Y0099683D01*
X0182823Y0099732D01*
X0182856Y0099783D01*
X0182885Y0099835D01*
X0182912Y0099890D01*
X0182935Y0099945D01*
X0182955Y0100002D01*
X0182971Y0100061D01*
X0182984Y0100120D01*
X0182993Y0100179D01*
X0182998Y0100240D01*
X0183000Y0100300D01*
X0183000Y0101800D01*
X0182500Y0102300D01*
X0182500Y0121300D01*
X0183000Y0121800D01*
X0183000Y0123300D01*
X0182998Y0123360D01*
X0182993Y0123421D01*
X0182984Y0123480D01*
X0182971Y0123539D01*
X0182955Y0123598D01*
X0182935Y0123655D01*
X0182912Y0123710D01*
X0182885Y0123765D01*
X0182856Y0123817D01*
X0182823Y0123868D01*
X0182787Y0123917D01*
X0182749Y0123963D01*
X0182707Y0124007D01*
X0182663Y0124049D01*
X0182617Y0124087D01*
X0182568Y0124123D01*
X0182517Y0124156D01*
X0182465Y0124185D01*
X0182410Y0124212D01*
X0182355Y0124235D01*
X0182298Y0124255D01*
X0182239Y0124271D01*
X0182180Y0124284D01*
X0182121Y0124293D01*
X0182060Y0124298D01*
X0182000Y0124300D01*
X0175000Y0124300D01*
X0174940Y0124298D01*
X0174879Y0124293D01*
X0174820Y0124284D01*
X0174761Y0124271D01*
X0174702Y0124255D01*
X0174645Y0124235D01*
X0174590Y0124212D01*
X0174535Y0124185D01*
X0174483Y0124156D01*
X0174432Y0124123D01*
X0174383Y0124087D01*
X0174337Y0124049D01*
X0174293Y0124007D01*
X0174251Y0123963D01*
X0174213Y0123917D01*
X0174177Y0123868D01*
X0174144Y0123817D01*
X0174115Y0123765D01*
X0174088Y0123710D01*
X0174065Y0123655D01*
X0174045Y0123598D01*
X0174029Y0123539D01*
X0174016Y0123480D01*
X0174007Y0123421D01*
X0174002Y0123360D01*
X0174000Y0123300D01*
X0147000Y0094300D02*
X0140000Y0094300D01*
X0139940Y0094298D01*
X0139879Y0094293D01*
X0139820Y0094284D01*
X0139761Y0094271D01*
X0139702Y0094255D01*
X0139645Y0094235D01*
X0139590Y0094212D01*
X0139535Y0094185D01*
X0139483Y0094156D01*
X0139432Y0094123D01*
X0139383Y0094087D01*
X0139337Y0094049D01*
X0139293Y0094007D01*
X0139251Y0093963D01*
X0139213Y0093917D01*
X0139177Y0093868D01*
X0139144Y0093817D01*
X0139115Y0093765D01*
X0139088Y0093710D01*
X0139065Y0093655D01*
X0139045Y0093598D01*
X0139029Y0093539D01*
X0139016Y0093480D01*
X0139007Y0093421D01*
X0139002Y0093360D01*
X0139000Y0093300D01*
X0139000Y0091800D01*
X0139500Y0091300D01*
X0139500Y0072300D01*
X0139000Y0071800D01*
X0139000Y0070300D01*
X0139002Y0070240D01*
X0139007Y0070179D01*
X0139016Y0070120D01*
X0139029Y0070061D01*
X0139045Y0070002D01*
X0139065Y0069945D01*
X0139088Y0069890D01*
X0139115Y0069835D01*
X0139144Y0069783D01*
X0139177Y0069732D01*
X0139213Y0069683D01*
X0139251Y0069637D01*
X0139293Y0069593D01*
X0139337Y0069551D01*
X0139383Y0069513D01*
X0139432Y0069477D01*
X0139483Y0069444D01*
X0139535Y0069415D01*
X0139590Y0069388D01*
X0139645Y0069365D01*
X0139702Y0069345D01*
X0139761Y0069329D01*
X0139820Y0069316D01*
X0139879Y0069307D01*
X0139940Y0069302D01*
X0140000Y0069300D01*
X0147000Y0069300D01*
X0147060Y0069302D01*
X0147121Y0069307D01*
X0147180Y0069316D01*
X0147239Y0069329D01*
X0147298Y0069345D01*
X0147355Y0069365D01*
X0147410Y0069388D01*
X0147465Y0069415D01*
X0147517Y0069444D01*
X0147568Y0069477D01*
X0147617Y0069513D01*
X0147663Y0069551D01*
X0147707Y0069593D01*
X0147749Y0069637D01*
X0147787Y0069683D01*
X0147823Y0069732D01*
X0147856Y0069783D01*
X0147885Y0069835D01*
X0147912Y0069890D01*
X0147935Y0069945D01*
X0147955Y0070002D01*
X0147971Y0070061D01*
X0147984Y0070120D01*
X0147993Y0070179D01*
X0147998Y0070240D01*
X0148000Y0070300D01*
X0148000Y0071800D01*
X0147500Y0072300D01*
X0147500Y0091300D01*
X0148000Y0091800D01*
X0148000Y0093300D01*
X0147998Y0093360D01*
X0147993Y0093421D01*
X0147984Y0093480D01*
X0147971Y0093539D01*
X0147955Y0093598D01*
X0147935Y0093655D01*
X0147912Y0093710D01*
X0147885Y0093765D01*
X0147856Y0093817D01*
X0147823Y0093868D01*
X0147787Y0093917D01*
X0147749Y0093963D01*
X0147707Y0094007D01*
X0147663Y0094049D01*
X0147617Y0094087D01*
X0147568Y0094123D01*
X0147517Y0094156D01*
X0147465Y0094185D01*
X0147410Y0094212D01*
X0147355Y0094235D01*
X0147298Y0094255D01*
X0147239Y0094271D01*
X0147180Y0094284D01*
X0147121Y0094293D01*
X0147060Y0094298D01*
X0147000Y0094300D01*
X0164500Y0086800D02*
X0164498Y0086648D01*
X0164492Y0086497D01*
X0164483Y0086346D01*
X0164469Y0086194D01*
X0164452Y0086044D01*
X0164431Y0085894D01*
X0164406Y0085744D01*
X0164378Y0085595D01*
X0164345Y0085447D01*
X0164309Y0085300D01*
X0164270Y0085153D01*
X0164226Y0085008D01*
X0164179Y0084864D01*
X0164128Y0084721D01*
X0164074Y0084580D01*
X0164016Y0084439D01*
X0163955Y0084301D01*
X0163890Y0084164D01*
X0163821Y0084028D01*
X0163750Y0083895D01*
X0163675Y0083763D01*
X0163596Y0083633D01*
X0163515Y0083506D01*
X0163430Y0083380D01*
X0163342Y0083256D01*
X0163251Y0083135D01*
X0163157Y0083016D01*
X0163059Y0082900D01*
X0162959Y0082786D01*
X0162857Y0082674D01*
X0162751Y0082566D01*
X0162643Y0082460D01*
X0162532Y0082356D01*
X0162418Y0082256D01*
X0162302Y0082158D01*
X0162183Y0082064D01*
X0152500Y0086800D02*
X0152502Y0086954D01*
X0152508Y0087108D01*
X0152518Y0087262D01*
X0152532Y0087416D01*
X0152549Y0087569D01*
X0152571Y0087721D01*
X0152597Y0087873D01*
X0152626Y0088025D01*
X0152660Y0088175D01*
X0152697Y0088325D01*
X0152738Y0088473D01*
X0152783Y0088621D01*
X0152832Y0088767D01*
X0152884Y0088912D01*
X0152940Y0089055D01*
X0153000Y0089198D01*
X0153063Y0089338D01*
X0153130Y0089477D01*
X0153201Y0089614D01*
X0153275Y0089749D01*
X0153352Y0089882D01*
X0153433Y0090014D01*
X0153517Y0090143D01*
X0153605Y0090270D01*
X0153696Y0090394D01*
X0153789Y0090516D01*
X0153887Y0090636D01*
X0153987Y0090753D01*
X0154090Y0090868D01*
X0154196Y0090980D01*
X0154304Y0091089D01*
X0154416Y0091195D01*
X0154530Y0091299D01*
X0154647Y0091399D01*
X0154766Y0091497D01*
X0154888Y0091591D01*
X0155013Y0091682D01*
X0152500Y0086800D02*
X0152502Y0086650D01*
X0152508Y0086499D01*
X0152517Y0086349D01*
X0152530Y0086200D01*
X0152547Y0086050D01*
X0152568Y0085901D01*
X0152592Y0085753D01*
X0152620Y0085605D01*
X0152652Y0085458D01*
X0152687Y0085312D01*
X0152727Y0085167D01*
X0152769Y0085023D01*
X0152816Y0084880D01*
X0152866Y0084738D01*
X0152919Y0084597D01*
X0152976Y0084458D01*
X0153036Y0084320D01*
X0153100Y0084184D01*
X0153167Y0084050D01*
X0153238Y0083917D01*
X0153312Y0083786D01*
X0153389Y0083657D01*
X0153470Y0083530D01*
X0153553Y0083405D01*
X0153640Y0083282D01*
X0153729Y0083161D01*
X0153822Y0083043D01*
X0153918Y0082927D01*
X0154016Y0082813D01*
X0154117Y0082702D01*
X0154222Y0082593D01*
X0154328Y0082488D01*
X0154438Y0082384D01*
X0154550Y0082284D01*
X0154664Y0082186D01*
X0154781Y0082092D01*
X0154900Y0082000D01*
X0164500Y0086800D02*
X0164498Y0086952D01*
X0164492Y0087103D01*
X0164483Y0087254D01*
X0164469Y0087406D01*
X0164452Y0087556D01*
X0164431Y0087706D01*
X0164406Y0087856D01*
X0164378Y0088005D01*
X0164345Y0088153D01*
X0164309Y0088300D01*
X0164270Y0088447D01*
X0164226Y0088592D01*
X0164179Y0088736D01*
X0164128Y0088879D01*
X0164074Y0089020D01*
X0164016Y0089161D01*
X0163955Y0089299D01*
X0163890Y0089436D01*
X0163821Y0089572D01*
X0163750Y0089705D01*
X0163675Y0089837D01*
X0163596Y0089967D01*
X0163515Y0090094D01*
X0163430Y0090220D01*
X0163342Y0090344D01*
X0163251Y0090465D01*
X0163157Y0090584D01*
X0163059Y0090700D01*
X0162959Y0090814D01*
X0162857Y0090926D01*
X0162751Y0091034D01*
X0162643Y0091140D01*
X0162532Y0091244D01*
X0162418Y0091344D01*
X0162302Y0091442D01*
X0162183Y0091536D01*
X0172000Y0046300D02*
X0169000Y0043300D01*
X0169000Y0030300D01*
X0172000Y0027300D01*
X0196500Y0027300D01*
X0196500Y0026300D02*
X0172000Y0026300D01*
X0169000Y0023300D01*
X0169000Y0010300D01*
X0172000Y0007300D01*
X0196500Y0007300D01*
X0196576Y0007302D01*
X0196652Y0007308D01*
X0196727Y0007317D01*
X0196802Y0007331D01*
X0196876Y0007348D01*
X0196949Y0007369D01*
X0197021Y0007393D01*
X0197092Y0007422D01*
X0197161Y0007453D01*
X0197228Y0007488D01*
X0197293Y0007527D01*
X0197357Y0007569D01*
X0197418Y0007614D01*
X0197477Y0007662D01*
X0197533Y0007713D01*
X0197587Y0007767D01*
X0197638Y0007823D01*
X0197686Y0007882D01*
X0197731Y0007943D01*
X0197773Y0008007D01*
X0197812Y0008072D01*
X0197847Y0008139D01*
X0197878Y0008208D01*
X0197907Y0008279D01*
X0197931Y0008351D01*
X0197952Y0008424D01*
X0197969Y0008498D01*
X0197983Y0008573D01*
X0197992Y0008648D01*
X0197998Y0008724D01*
X0198000Y0008800D01*
X0198000Y0024800D01*
X0197998Y0024876D01*
X0197992Y0024952D01*
X0197983Y0025027D01*
X0197969Y0025102D01*
X0197952Y0025176D01*
X0197931Y0025249D01*
X0197907Y0025321D01*
X0197878Y0025392D01*
X0197847Y0025461D01*
X0197812Y0025528D01*
X0197773Y0025593D01*
X0197731Y0025657D01*
X0197686Y0025718D01*
X0197638Y0025777D01*
X0197587Y0025833D01*
X0197533Y0025887D01*
X0197477Y0025938D01*
X0197418Y0025986D01*
X0197357Y0026031D01*
X0197293Y0026073D01*
X0197228Y0026112D01*
X0197161Y0026147D01*
X0197092Y0026178D01*
X0197021Y0026207D01*
X0196949Y0026231D01*
X0196876Y0026252D01*
X0196802Y0026269D01*
X0196727Y0026283D01*
X0196652Y0026292D01*
X0196576Y0026298D01*
X0196500Y0026300D01*
X0196500Y0027300D02*
X0196576Y0027302D01*
X0196652Y0027308D01*
X0196727Y0027317D01*
X0196802Y0027331D01*
X0196876Y0027348D01*
X0196949Y0027369D01*
X0197021Y0027393D01*
X0197092Y0027422D01*
X0197161Y0027453D01*
X0197228Y0027488D01*
X0197293Y0027527D01*
X0197357Y0027569D01*
X0197418Y0027614D01*
X0197477Y0027662D01*
X0197533Y0027713D01*
X0197587Y0027767D01*
X0197638Y0027823D01*
X0197686Y0027882D01*
X0197731Y0027943D01*
X0197773Y0028007D01*
X0197812Y0028072D01*
X0197847Y0028139D01*
X0197878Y0028208D01*
X0197907Y0028279D01*
X0197931Y0028351D01*
X0197952Y0028424D01*
X0197969Y0028498D01*
X0197983Y0028573D01*
X0197992Y0028648D01*
X0197998Y0028724D01*
X0198000Y0028800D01*
X0198000Y0044800D01*
X0197998Y0044876D01*
X0197992Y0044952D01*
X0197983Y0045027D01*
X0197969Y0045102D01*
X0197952Y0045176D01*
X0197931Y0045249D01*
X0197907Y0045321D01*
X0197878Y0045392D01*
X0197847Y0045461D01*
X0197812Y0045528D01*
X0197773Y0045593D01*
X0197731Y0045657D01*
X0197686Y0045718D01*
X0197638Y0045777D01*
X0197587Y0045833D01*
X0197533Y0045887D01*
X0197477Y0045938D01*
X0197418Y0045986D01*
X0197357Y0046031D01*
X0197293Y0046073D01*
X0197228Y0046112D01*
X0197161Y0046147D01*
X0197092Y0046178D01*
X0197021Y0046207D01*
X0196949Y0046231D01*
X0196876Y0046252D01*
X0196802Y0046269D01*
X0196727Y0046283D01*
X0196652Y0046292D01*
X0196576Y0046298D01*
X0196500Y0046300D01*
X0172000Y0046300D01*
X0175200Y0042200D02*
X0177800Y0042200D01*
X0176500Y0043400D02*
X0176500Y0040900D01*
X0177500Y0036800D02*
X0181000Y0036800D01*
X0181000Y0041600D01*
X0183000Y0041600D01*
X0183000Y0032000D01*
X0181000Y0032000D01*
X0181000Y0036800D01*
X0186000Y0036800D02*
X0189500Y0036800D01*
X0176500Y0023400D02*
X0176500Y0020900D01*
X0177800Y0022200D02*
X0175200Y0022200D01*
X0181000Y0021600D02*
X0181000Y0016800D01*
X0181000Y0012000D01*
X0183000Y0012000D01*
X0183000Y0021600D01*
X0181000Y0021600D01*
X0181000Y0016800D02*
X0177500Y0016800D01*
X0186000Y0016800D02*
X0189500Y0016800D01*
X0053000Y0025300D02*
X0053000Y0026800D01*
X0052500Y0027300D01*
X0052500Y0046300D01*
X0053000Y0046800D01*
X0053000Y0048300D01*
X0052998Y0048360D01*
X0052993Y0048421D01*
X0052984Y0048480D01*
X0052971Y0048539D01*
X0052955Y0048598D01*
X0052935Y0048655D01*
X0052912Y0048710D01*
X0052885Y0048765D01*
X0052856Y0048817D01*
X0052823Y0048868D01*
X0052787Y0048917D01*
X0052749Y0048963D01*
X0052707Y0049007D01*
X0052663Y0049049D01*
X0052617Y0049087D01*
X0052568Y0049123D01*
X0052517Y0049156D01*
X0052465Y0049185D01*
X0052410Y0049212D01*
X0052355Y0049235D01*
X0052298Y0049255D01*
X0052239Y0049271D01*
X0052180Y0049284D01*
X0052121Y0049293D01*
X0052060Y0049298D01*
X0052000Y0049300D01*
X0045000Y0049300D01*
X0044940Y0049298D01*
X0044879Y0049293D01*
X0044820Y0049284D01*
X0044761Y0049271D01*
X0044702Y0049255D01*
X0044645Y0049235D01*
X0044590Y0049212D01*
X0044535Y0049185D01*
X0044483Y0049156D01*
X0044432Y0049123D01*
X0044383Y0049087D01*
X0044337Y0049049D01*
X0044293Y0049007D01*
X0044251Y0048963D01*
X0044213Y0048917D01*
X0044177Y0048868D01*
X0044144Y0048817D01*
X0044115Y0048765D01*
X0044088Y0048710D01*
X0044065Y0048655D01*
X0044045Y0048598D01*
X0044029Y0048539D01*
X0044016Y0048480D01*
X0044007Y0048421D01*
X0044002Y0048360D01*
X0044000Y0048300D01*
X0044000Y0046800D01*
X0044500Y0046300D01*
X0044500Y0027300D01*
X0044000Y0026800D01*
X0044000Y0025300D01*
X0044002Y0025240D01*
X0044007Y0025179D01*
X0044016Y0025120D01*
X0044029Y0025061D01*
X0044045Y0025002D01*
X0044065Y0024945D01*
X0044088Y0024890D01*
X0044115Y0024835D01*
X0044144Y0024783D01*
X0044177Y0024732D01*
X0044213Y0024683D01*
X0044251Y0024637D01*
X0044293Y0024593D01*
X0044337Y0024551D01*
X0044383Y0024513D01*
X0044432Y0024477D01*
X0044483Y0024444D01*
X0044535Y0024415D01*
X0044590Y0024388D01*
X0044645Y0024365D01*
X0044702Y0024345D01*
X0044761Y0024329D01*
X0044820Y0024316D01*
X0044879Y0024307D01*
X0044940Y0024302D01*
X0045000Y0024300D01*
X0052000Y0024300D01*
X0052060Y0024302D01*
X0052121Y0024307D01*
X0052180Y0024316D01*
X0052239Y0024329D01*
X0052298Y0024345D01*
X0052355Y0024365D01*
X0052410Y0024388D01*
X0052465Y0024415D01*
X0052517Y0024444D01*
X0052568Y0024477D01*
X0052617Y0024513D01*
X0052663Y0024551D01*
X0052707Y0024593D01*
X0052749Y0024637D01*
X0052787Y0024683D01*
X0052823Y0024732D01*
X0052856Y0024783D01*
X0052885Y0024835D01*
X0052912Y0024890D01*
X0052935Y0024945D01*
X0052955Y0025002D01*
X0052971Y0025061D01*
X0052984Y0025120D01*
X0052993Y0025179D01*
X0052998Y0025240D01*
X0053000Y0025300D01*
X0038000Y0025300D02*
X0038000Y0026800D01*
X0037500Y0027300D01*
X0037500Y0046300D01*
X0038000Y0046800D01*
X0038000Y0048300D01*
X0037998Y0048360D01*
X0037993Y0048421D01*
X0037984Y0048480D01*
X0037971Y0048539D01*
X0037955Y0048598D01*
X0037935Y0048655D01*
X0037912Y0048710D01*
X0037885Y0048765D01*
X0037856Y0048817D01*
X0037823Y0048868D01*
X0037787Y0048917D01*
X0037749Y0048963D01*
X0037707Y0049007D01*
X0037663Y0049049D01*
X0037617Y0049087D01*
X0037568Y0049123D01*
X0037517Y0049156D01*
X0037465Y0049185D01*
X0037410Y0049212D01*
X0037355Y0049235D01*
X0037298Y0049255D01*
X0037239Y0049271D01*
X0037180Y0049284D01*
X0037121Y0049293D01*
X0037060Y0049298D01*
X0037000Y0049300D01*
X0030000Y0049300D01*
X0029940Y0049298D01*
X0029879Y0049293D01*
X0029820Y0049284D01*
X0029761Y0049271D01*
X0029702Y0049255D01*
X0029645Y0049235D01*
X0029590Y0049212D01*
X0029535Y0049185D01*
X0029483Y0049156D01*
X0029432Y0049123D01*
X0029383Y0049087D01*
X0029337Y0049049D01*
X0029293Y0049007D01*
X0029251Y0048963D01*
X0029213Y0048917D01*
X0029177Y0048868D01*
X0029144Y0048817D01*
X0029115Y0048765D01*
X0029088Y0048710D01*
X0029065Y0048655D01*
X0029045Y0048598D01*
X0029029Y0048539D01*
X0029016Y0048480D01*
X0029007Y0048421D01*
X0029002Y0048360D01*
X0029000Y0048300D01*
X0029000Y0046800D01*
X0029500Y0046300D01*
X0029500Y0027300D01*
X0029000Y0026800D01*
X0029000Y0025300D01*
X0029002Y0025240D01*
X0029007Y0025179D01*
X0029016Y0025120D01*
X0029029Y0025061D01*
X0029045Y0025002D01*
X0029065Y0024945D01*
X0029088Y0024890D01*
X0029115Y0024835D01*
X0029144Y0024783D01*
X0029177Y0024732D01*
X0029213Y0024683D01*
X0029251Y0024637D01*
X0029293Y0024593D01*
X0029337Y0024551D01*
X0029383Y0024513D01*
X0029432Y0024477D01*
X0029483Y0024444D01*
X0029535Y0024415D01*
X0029590Y0024388D01*
X0029645Y0024365D01*
X0029702Y0024345D01*
X0029761Y0024329D01*
X0029820Y0024316D01*
X0029879Y0024307D01*
X0029940Y0024302D01*
X0030000Y0024300D01*
X0037000Y0024300D01*
X0037060Y0024302D01*
X0037121Y0024307D01*
X0037180Y0024316D01*
X0037239Y0024329D01*
X0037298Y0024345D01*
X0037355Y0024365D01*
X0037410Y0024388D01*
X0037465Y0024415D01*
X0037517Y0024444D01*
X0037568Y0024477D01*
X0037617Y0024513D01*
X0037663Y0024551D01*
X0037707Y0024593D01*
X0037749Y0024637D01*
X0037787Y0024683D01*
X0037823Y0024732D01*
X0037856Y0024783D01*
X0037885Y0024835D01*
X0037912Y0024890D01*
X0037935Y0024945D01*
X0037955Y0025002D01*
X0037971Y0025061D01*
X0037984Y0025120D01*
X0037993Y0025179D01*
X0037998Y0025240D01*
X0038000Y0025300D01*
X0027500Y0071800D02*
X0027502Y0071952D01*
X0027508Y0072103D01*
X0027517Y0072254D01*
X0027531Y0072406D01*
X0027548Y0072556D01*
X0027569Y0072706D01*
X0027594Y0072856D01*
X0027622Y0073005D01*
X0027655Y0073153D01*
X0027691Y0073300D01*
X0027730Y0073447D01*
X0027774Y0073592D01*
X0027821Y0073736D01*
X0027872Y0073879D01*
X0027926Y0074020D01*
X0027984Y0074161D01*
X0028045Y0074299D01*
X0028110Y0074436D01*
X0028179Y0074572D01*
X0028250Y0074705D01*
X0028325Y0074837D01*
X0028404Y0074967D01*
X0028485Y0075094D01*
X0028570Y0075220D01*
X0028658Y0075344D01*
X0028749Y0075465D01*
X0028843Y0075584D01*
X0028941Y0075700D01*
X0029041Y0075814D01*
X0029143Y0075926D01*
X0029249Y0076034D01*
X0029357Y0076140D01*
X0029468Y0076244D01*
X0029582Y0076344D01*
X0029698Y0076442D01*
X0029817Y0076536D01*
X0039500Y0071800D02*
X0039498Y0071646D01*
X0039492Y0071492D01*
X0039482Y0071338D01*
X0039468Y0071184D01*
X0039451Y0071031D01*
X0039429Y0070879D01*
X0039403Y0070727D01*
X0039374Y0070575D01*
X0039340Y0070425D01*
X0039303Y0070275D01*
X0039262Y0070127D01*
X0039217Y0069979D01*
X0039168Y0069833D01*
X0039116Y0069688D01*
X0039060Y0069545D01*
X0039000Y0069402D01*
X0038937Y0069262D01*
X0038870Y0069123D01*
X0038799Y0068986D01*
X0038725Y0068851D01*
X0038648Y0068718D01*
X0038567Y0068586D01*
X0038483Y0068457D01*
X0038395Y0068330D01*
X0038304Y0068206D01*
X0038211Y0068084D01*
X0038113Y0067964D01*
X0038013Y0067847D01*
X0037910Y0067732D01*
X0037804Y0067620D01*
X0037696Y0067511D01*
X0037584Y0067405D01*
X0037470Y0067301D01*
X0037353Y0067201D01*
X0037234Y0067103D01*
X0037112Y0067009D01*
X0036987Y0066918D01*
X0039500Y0071800D02*
X0039498Y0071950D01*
X0039492Y0072101D01*
X0039483Y0072251D01*
X0039470Y0072400D01*
X0039453Y0072550D01*
X0039432Y0072699D01*
X0039408Y0072847D01*
X0039380Y0072995D01*
X0039348Y0073142D01*
X0039313Y0073288D01*
X0039273Y0073433D01*
X0039231Y0073577D01*
X0039184Y0073720D01*
X0039134Y0073862D01*
X0039081Y0074003D01*
X0039024Y0074142D01*
X0038964Y0074280D01*
X0038900Y0074416D01*
X0038833Y0074550D01*
X0038762Y0074683D01*
X0038688Y0074814D01*
X0038611Y0074943D01*
X0038530Y0075070D01*
X0038447Y0075195D01*
X0038360Y0075318D01*
X0038271Y0075439D01*
X0038178Y0075557D01*
X0038082Y0075673D01*
X0037984Y0075787D01*
X0037883Y0075898D01*
X0037778Y0076007D01*
X0037672Y0076112D01*
X0037562Y0076216D01*
X0037450Y0076316D01*
X0037336Y0076414D01*
X0037219Y0076508D01*
X0037100Y0076600D01*
X0027500Y0071800D02*
X0027502Y0071648D01*
X0027508Y0071497D01*
X0027517Y0071346D01*
X0027531Y0071194D01*
X0027548Y0071044D01*
X0027569Y0070894D01*
X0027594Y0070744D01*
X0027622Y0070595D01*
X0027655Y0070447D01*
X0027691Y0070300D01*
X0027730Y0070153D01*
X0027774Y0070008D01*
X0027821Y0069864D01*
X0027872Y0069721D01*
X0027926Y0069580D01*
X0027984Y0069439D01*
X0028045Y0069301D01*
X0028110Y0069164D01*
X0028179Y0069028D01*
X0028250Y0068895D01*
X0028325Y0068763D01*
X0028404Y0068633D01*
X0028485Y0068506D01*
X0028570Y0068380D01*
X0028658Y0068256D01*
X0028749Y0068135D01*
X0028843Y0068016D01*
X0028941Y0067900D01*
X0029041Y0067786D01*
X0029143Y0067674D01*
X0029249Y0067566D01*
X0029357Y0067460D01*
X0029468Y0067356D01*
X0029582Y0067256D01*
X0029698Y0067158D01*
X0029817Y0067064D01*
X0138500Y0185300D02*
X0138500Y0185800D01*
X0138500Y0187800D02*
X0138500Y0188300D01*
X0178136Y0173505D02*
X0182407Y0173505D01*
D13*
X0141500Y0167800D02*
X0138500Y0167800D01*
X0135500Y0167800D01*
X0135500Y0165800D02*
X0138500Y0165800D01*
X0141500Y0165800D01*
X0126500Y0165800D02*
X0123500Y0165800D01*
X0120500Y0165800D01*
X0120500Y0167800D02*
X0123500Y0167800D01*
X0126500Y0167800D01*
X0135500Y0185800D02*
X0138500Y0185800D01*
X0141500Y0185800D01*
X0141500Y0187800D02*
X0138500Y0187800D01*
X0135500Y0187800D01*
X0135500Y0147800D02*
X0138500Y0147800D01*
X0141500Y0147800D01*
X0141500Y0145800D02*
X0138500Y0145800D01*
X0135500Y0145800D01*
X0150500Y0086800D02*
X0150502Y0086608D01*
X0150509Y0086416D01*
X0150521Y0086224D01*
X0150537Y0086032D01*
X0150558Y0085841D01*
X0150583Y0085651D01*
X0150613Y0085461D01*
X0150647Y0085272D01*
X0150686Y0085084D01*
X0150730Y0084897D01*
X0150778Y0084711D01*
X0150830Y0084526D01*
X0150887Y0084342D01*
X0150948Y0084160D01*
X0151014Y0083980D01*
X0151084Y0083801D01*
X0151158Y0083623D01*
X0151236Y0083448D01*
X0151319Y0083274D01*
X0151406Y0083103D01*
X0151496Y0082934D01*
X0151591Y0082767D01*
X0151690Y0082602D01*
X0151793Y0082439D01*
X0151900Y0082280D01*
X0152010Y0082122D01*
X0152124Y0081968D01*
X0152242Y0081816D01*
X0152364Y0081667D01*
X0152489Y0081521D01*
X0152617Y0081379D01*
X0152749Y0081239D01*
X0152884Y0081102D01*
X0153023Y0080969D01*
X0153164Y0080839D01*
X0153309Y0080713D01*
X0153457Y0080590D01*
X0153607Y0080471D01*
X0153761Y0080355D01*
X0153917Y0080243D01*
X0154076Y0080135D01*
X0154237Y0080030D01*
X0154401Y0079930D01*
X0154567Y0079834D01*
X0154735Y0079741D01*
X0162469Y0079854D02*
X0162638Y0079953D01*
X0162804Y0080057D01*
X0162968Y0080164D01*
X0163129Y0080275D01*
X0163287Y0080390D01*
X0163442Y0080509D01*
X0163595Y0080632D01*
X0163744Y0080758D01*
X0163890Y0080888D01*
X0164033Y0081022D01*
X0164173Y0081159D01*
X0164309Y0081299D01*
X0164442Y0081443D01*
X0164571Y0081590D01*
X0164697Y0081740D01*
X0164818Y0081893D01*
X0164937Y0082049D01*
X0165051Y0082208D01*
X0165161Y0082369D01*
X0165267Y0082534D01*
X0165370Y0082700D01*
X0165468Y0082870D01*
X0165562Y0083041D01*
X0165652Y0083215D01*
X0165737Y0083391D01*
X0165819Y0083569D01*
X0165895Y0083749D01*
X0165968Y0083931D01*
X0166036Y0084114D01*
X0166099Y0084299D01*
X0166158Y0084486D01*
X0166212Y0084674D01*
X0166262Y0084863D01*
X0166307Y0085053D01*
X0166347Y0085245D01*
X0166383Y0085437D01*
X0166414Y0085630D01*
X0166440Y0085824D01*
X0166462Y0086019D01*
X0166478Y0086214D01*
X0166490Y0086409D01*
X0166498Y0086605D01*
X0166500Y0086800D01*
X0166498Y0086993D01*
X0166491Y0087186D01*
X0166479Y0087378D01*
X0166463Y0087571D01*
X0166442Y0087763D01*
X0166416Y0087954D01*
X0166386Y0088144D01*
X0166351Y0088334D01*
X0166312Y0088523D01*
X0166268Y0088711D01*
X0166220Y0088898D01*
X0166167Y0089084D01*
X0166110Y0089268D01*
X0166048Y0089451D01*
X0165982Y0089632D01*
X0165911Y0089812D01*
X0165837Y0089990D01*
X0165758Y0090166D01*
X0165674Y0090340D01*
X0165587Y0090512D01*
X0165495Y0090682D01*
X0165399Y0090849D01*
X0165300Y0091015D01*
X0165196Y0091178D01*
X0165089Y0091338D01*
X0164977Y0091495D01*
X0164862Y0091650D01*
X0164743Y0091802D01*
X0164621Y0091951D01*
X0164495Y0092098D01*
X0164365Y0092241D01*
X0164232Y0092381D01*
X0164096Y0092517D01*
X0163956Y0092651D01*
X0163814Y0092780D01*
X0163668Y0092907D01*
X0153378Y0092946D02*
X0153230Y0092819D01*
X0153085Y0092689D01*
X0152944Y0092556D01*
X0152805Y0092419D01*
X0152670Y0092279D01*
X0152539Y0092135D01*
X0152411Y0091988D01*
X0152286Y0091839D01*
X0152165Y0091686D01*
X0152048Y0091531D01*
X0151935Y0091372D01*
X0151826Y0091211D01*
X0151721Y0091047D01*
X0151619Y0090881D01*
X0151522Y0090712D01*
X0151429Y0090542D01*
X0151340Y0090368D01*
X0151255Y0090193D01*
X0151175Y0090016D01*
X0151099Y0089837D01*
X0151027Y0089656D01*
X0150960Y0089473D01*
X0150897Y0089289D01*
X0150839Y0089103D01*
X0150785Y0088916D01*
X0150736Y0088728D01*
X0150691Y0088538D01*
X0150651Y0088348D01*
X0150616Y0088156D01*
X0150585Y0087964D01*
X0150559Y0087771D01*
X0150538Y0087577D01*
X0150521Y0087383D01*
X0150509Y0087189D01*
X0150502Y0086995D01*
X0150500Y0086800D01*
X0029531Y0078746D02*
X0029362Y0078647D01*
X0029196Y0078543D01*
X0029032Y0078436D01*
X0028871Y0078325D01*
X0028713Y0078210D01*
X0028558Y0078091D01*
X0028405Y0077968D01*
X0028256Y0077842D01*
X0028110Y0077712D01*
X0027967Y0077578D01*
X0027827Y0077441D01*
X0027691Y0077301D01*
X0027558Y0077157D01*
X0027429Y0077010D01*
X0027303Y0076860D01*
X0027182Y0076707D01*
X0027063Y0076551D01*
X0026949Y0076392D01*
X0026839Y0076231D01*
X0026733Y0076066D01*
X0026630Y0075900D01*
X0026532Y0075730D01*
X0026438Y0075559D01*
X0026348Y0075385D01*
X0026263Y0075209D01*
X0026181Y0075031D01*
X0026105Y0074851D01*
X0026032Y0074669D01*
X0025964Y0074486D01*
X0025901Y0074301D01*
X0025842Y0074114D01*
X0025788Y0073926D01*
X0025738Y0073737D01*
X0025693Y0073547D01*
X0025653Y0073355D01*
X0025617Y0073163D01*
X0025586Y0072970D01*
X0025560Y0072776D01*
X0025538Y0072581D01*
X0025522Y0072386D01*
X0025510Y0072191D01*
X0025502Y0071995D01*
X0025500Y0071800D01*
X0037265Y0078859D02*
X0037433Y0078766D01*
X0037599Y0078670D01*
X0037763Y0078570D01*
X0037924Y0078465D01*
X0038083Y0078357D01*
X0038239Y0078245D01*
X0038393Y0078129D01*
X0038543Y0078010D01*
X0038691Y0077887D01*
X0038836Y0077761D01*
X0038977Y0077631D01*
X0039116Y0077498D01*
X0039251Y0077361D01*
X0039383Y0077221D01*
X0039511Y0077079D01*
X0039636Y0076933D01*
X0039758Y0076784D01*
X0039876Y0076632D01*
X0039990Y0076478D01*
X0040100Y0076320D01*
X0040207Y0076161D01*
X0040310Y0075998D01*
X0040409Y0075833D01*
X0040504Y0075666D01*
X0040594Y0075497D01*
X0040681Y0075326D01*
X0040764Y0075152D01*
X0040842Y0074977D01*
X0040916Y0074799D01*
X0040986Y0074620D01*
X0041052Y0074440D01*
X0041113Y0074258D01*
X0041170Y0074074D01*
X0041222Y0073889D01*
X0041270Y0073703D01*
X0041314Y0073516D01*
X0041353Y0073328D01*
X0041387Y0073139D01*
X0041417Y0072949D01*
X0041442Y0072759D01*
X0041463Y0072568D01*
X0041479Y0072376D01*
X0041491Y0072184D01*
X0041498Y0071992D01*
X0041500Y0071800D01*
X0028332Y0065693D02*
X0028186Y0065820D01*
X0028044Y0065949D01*
X0027904Y0066083D01*
X0027768Y0066219D01*
X0027635Y0066359D01*
X0027505Y0066502D01*
X0027379Y0066649D01*
X0027257Y0066798D01*
X0027138Y0066950D01*
X0027023Y0067105D01*
X0026911Y0067262D01*
X0026804Y0067422D01*
X0026700Y0067585D01*
X0026601Y0067751D01*
X0026505Y0067918D01*
X0026413Y0068088D01*
X0026326Y0068260D01*
X0026242Y0068434D01*
X0026163Y0068610D01*
X0026089Y0068788D01*
X0026018Y0068968D01*
X0025952Y0069149D01*
X0025890Y0069332D01*
X0025833Y0069516D01*
X0025780Y0069702D01*
X0025732Y0069889D01*
X0025688Y0070077D01*
X0025649Y0070266D01*
X0025614Y0070456D01*
X0025584Y0070646D01*
X0025558Y0070837D01*
X0025537Y0071029D01*
X0025521Y0071222D01*
X0025509Y0071414D01*
X0025502Y0071607D01*
X0025500Y0071800D01*
X0038622Y0065654D02*
X0038770Y0065781D01*
X0038915Y0065911D01*
X0039056Y0066044D01*
X0039195Y0066181D01*
X0039330Y0066321D01*
X0039461Y0066465D01*
X0039589Y0066612D01*
X0039714Y0066761D01*
X0039835Y0066914D01*
X0039952Y0067069D01*
X0040065Y0067228D01*
X0040174Y0067389D01*
X0040279Y0067553D01*
X0040381Y0067719D01*
X0040478Y0067888D01*
X0040571Y0068058D01*
X0040660Y0068232D01*
X0040745Y0068407D01*
X0040825Y0068584D01*
X0040901Y0068763D01*
X0040973Y0068944D01*
X0041040Y0069127D01*
X0041103Y0069311D01*
X0041161Y0069497D01*
X0041215Y0069684D01*
X0041264Y0069872D01*
X0041309Y0070062D01*
X0041349Y0070252D01*
X0041384Y0070444D01*
X0041415Y0070636D01*
X0041441Y0070829D01*
X0041462Y0071023D01*
X0041479Y0071217D01*
X0041491Y0071411D01*
X0041498Y0071605D01*
X0041500Y0071800D01*
D14*
X0039750Y0062949D02*
X0039750Y0059946D01*
X0036747Y0062949D01*
X0035997Y0062949D01*
X0035246Y0062198D01*
X0035246Y0060697D01*
X0035997Y0059946D01*
X0035997Y0058345D02*
X0035246Y0057594D01*
X0035246Y0055342D01*
X0039750Y0055342D01*
X0039750Y0057594D01*
X0038999Y0058345D01*
X0035997Y0058345D01*
X0031750Y0057594D02*
X0031750Y0056093D01*
X0030999Y0055342D01*
X0029498Y0055342D01*
X0028747Y0056093D01*
X0028747Y0057594D01*
X0029498Y0058345D01*
X0030249Y0058345D01*
X0030249Y0055342D01*
X0030249Y0053741D02*
X0030249Y0050738D01*
X0030999Y0050738D02*
X0029498Y0050738D01*
X0028747Y0051489D01*
X0028747Y0052990D01*
X0029498Y0053741D01*
X0030249Y0053741D01*
X0031750Y0052990D02*
X0031750Y0051489D01*
X0030999Y0050738D01*
X0028747Y0049153D02*
X0028747Y0048403D01*
X0030249Y0046902D01*
X0031750Y0046902D02*
X0028747Y0046902D01*
X0027997Y0045300D02*
X0027246Y0044550D01*
X0027246Y0043048D01*
X0027997Y0042298D01*
X0030999Y0042298D01*
X0031750Y0043048D01*
X0031750Y0044550D01*
X0030999Y0045300D01*
X0029498Y0045300D01*
X0029498Y0043799D01*
X0031997Y0040360D02*
X0034999Y0037358D01*
X0035750Y0038108D01*
X0035750Y0039610D01*
X0034999Y0040360D01*
X0031997Y0040360D01*
X0031246Y0039610D01*
X0031246Y0038108D01*
X0031997Y0037358D01*
X0034999Y0037358D01*
X0034999Y0035756D02*
X0035750Y0035006D01*
X0035750Y0033505D01*
X0034999Y0032754D01*
X0034999Y0031153D02*
X0035750Y0030402D01*
X0035750Y0028901D01*
X0034999Y0028150D01*
X0033498Y0029651D02*
X0033498Y0030402D01*
X0034249Y0031153D01*
X0034999Y0031153D01*
X0033498Y0030402D02*
X0032747Y0031153D01*
X0031997Y0031153D01*
X0031246Y0030402D01*
X0031246Y0028901D01*
X0031997Y0028150D01*
X0031997Y0032754D02*
X0031246Y0033505D01*
X0031246Y0035006D01*
X0031997Y0035756D01*
X0032747Y0035756D01*
X0033498Y0035006D01*
X0034249Y0035756D01*
X0034999Y0035756D01*
X0033498Y0035006D02*
X0033498Y0034255D01*
X0037746Y0031906D02*
X0037746Y0030405D01*
X0038497Y0029654D01*
X0038497Y0028053D02*
X0039998Y0028053D01*
X0040749Y0027302D01*
X0040749Y0025050D01*
X0042250Y0025050D02*
X0037746Y0025050D01*
X0037746Y0027302D01*
X0038497Y0028053D01*
X0040749Y0026551D02*
X0042250Y0028053D01*
X0041499Y0029654D02*
X0042250Y0030405D01*
X0042250Y0031906D01*
X0041499Y0032656D01*
X0040749Y0032656D01*
X0039998Y0031906D01*
X0039998Y0031155D01*
X0039998Y0031906D02*
X0039247Y0032656D01*
X0038497Y0032656D01*
X0037746Y0031906D01*
X0046246Y0033505D02*
X0046246Y0035006D01*
X0046997Y0035756D01*
X0049999Y0032754D01*
X0050750Y0033505D01*
X0050750Y0035006D01*
X0049999Y0035756D01*
X0046997Y0035756D01*
X0046246Y0037358D02*
X0050750Y0037358D01*
X0049249Y0037358D02*
X0047747Y0039610D01*
X0049249Y0037358D02*
X0050750Y0039610D01*
X0049999Y0032754D02*
X0046997Y0032754D01*
X0046246Y0033505D01*
X0046246Y0029651D02*
X0050750Y0029651D01*
X0050750Y0028150D02*
X0050750Y0031153D01*
X0047747Y0028150D02*
X0046246Y0029651D01*
X0039750Y0046134D02*
X0035246Y0046134D01*
X0039750Y0046134D02*
X0039750Y0049137D01*
X0039750Y0050738D02*
X0039750Y0053741D01*
X0037498Y0052239D02*
X0037498Y0050738D01*
X0035246Y0050738D02*
X0035246Y0053741D01*
X0035246Y0050738D02*
X0039750Y0050738D01*
X0031750Y0059946D02*
X0028747Y0059946D01*
X0028747Y0062198D01*
X0029498Y0062949D01*
X0031750Y0062949D01*
X0023500Y0061800D02*
X0023500Y0051800D01*
X0018500Y0056800D01*
X0023500Y0061800D01*
X0023500Y0061621D02*
X0023321Y0061621D01*
X0023500Y0061123D02*
X0022823Y0061123D01*
X0022324Y0060624D02*
X0023500Y0060624D01*
X0023500Y0060126D02*
X0021826Y0060126D01*
X0021327Y0059627D02*
X0023500Y0059627D01*
X0023500Y0059129D02*
X0020829Y0059129D01*
X0020330Y0058630D02*
X0023500Y0058630D01*
X0023500Y0058132D02*
X0019832Y0058132D01*
X0019333Y0057633D02*
X0023500Y0057633D01*
X0023500Y0057135D02*
X0018835Y0057135D01*
X0018664Y0056636D02*
X0023500Y0056636D01*
X0023500Y0056138D02*
X0019162Y0056138D01*
X0019661Y0055639D02*
X0023500Y0055639D01*
X0023500Y0055141D02*
X0020159Y0055141D01*
X0020658Y0054642D02*
X0023500Y0054642D01*
X0023500Y0054144D02*
X0021156Y0054144D01*
X0021655Y0053645D02*
X0023500Y0053645D01*
X0023500Y0053147D02*
X0022153Y0053147D01*
X0022652Y0052648D02*
X0023500Y0052648D01*
X0023500Y0052150D02*
X0023150Y0052150D01*
X0007750Y0062367D02*
X0007750Y0062684D01*
X0007433Y0063001D01*
X0005848Y0063001D01*
X0005848Y0062684D02*
X0005848Y0063318D01*
X0006165Y0064260D02*
X0005848Y0064577D01*
X0005848Y0065211D01*
X0006165Y0065528D01*
X0006482Y0065528D01*
X0006799Y0065211D01*
X0007116Y0065528D01*
X0007433Y0065528D01*
X0007750Y0065211D01*
X0007750Y0064577D01*
X0007433Y0064260D01*
X0006799Y0064894D02*
X0006799Y0065211D01*
X0007750Y0062367D02*
X0007433Y0062050D01*
X0006150Y0060791D02*
X0006150Y0060157D01*
X0005833Y0059840D01*
X0005199Y0059840D01*
X0005199Y0060791D01*
X0005516Y0061108D01*
X0005833Y0061108D01*
X0006150Y0060791D01*
X0005199Y0059840D02*
X0004565Y0060474D01*
X0004248Y0061108D01*
X0004565Y0058898D02*
X0004248Y0058581D01*
X0004248Y0057947D01*
X0004565Y0057630D01*
X0004882Y0057630D01*
X0005199Y0057947D01*
X0005199Y0058581D01*
X0005516Y0058898D01*
X0005833Y0058898D01*
X0006150Y0058581D01*
X0006150Y0057947D01*
X0005833Y0057630D01*
X0006467Y0058264D02*
X0003931Y0058264D01*
X0004248Y0056688D02*
X0005833Y0056688D01*
X0006150Y0056371D01*
X0006150Y0055737D01*
X0005833Y0055420D01*
X0004248Y0055420D01*
X0004516Y0043608D02*
X0004199Y0043291D01*
X0004199Y0042974D01*
X0004199Y0043291D02*
X0003882Y0043608D01*
X0003565Y0043608D01*
X0003248Y0043291D01*
X0003248Y0042657D01*
X0003565Y0042340D01*
X0003248Y0041398D02*
X0003248Y0040130D01*
X0003248Y0040764D02*
X0005150Y0040764D01*
X0005150Y0039291D02*
X0005150Y0038657D01*
X0005150Y0038974D02*
X0003248Y0038974D01*
X0003248Y0038657D02*
X0003248Y0039291D01*
X0003248Y0037715D02*
X0004516Y0036447D01*
X0004199Y0036764D02*
X0005150Y0037715D01*
X0005150Y0036447D02*
X0003248Y0036447D01*
X0003565Y0035505D02*
X0003248Y0035188D01*
X0003248Y0034554D01*
X0003565Y0034237D01*
X0004833Y0034237D01*
X0005150Y0034554D01*
X0005150Y0035188D01*
X0004833Y0035505D01*
X0005150Y0033398D02*
X0005150Y0032764D01*
X0005150Y0033081D02*
X0003248Y0033081D01*
X0003248Y0032764D02*
X0003248Y0033398D01*
X0003565Y0031822D02*
X0004199Y0031822D01*
X0004516Y0031505D01*
X0004516Y0030554D01*
X0005150Y0030554D02*
X0003248Y0030554D01*
X0003248Y0031505D01*
X0003565Y0031822D01*
X0004833Y0042340D02*
X0005150Y0042657D01*
X0005150Y0043291D01*
X0004833Y0043608D01*
X0004516Y0043608D01*
X0022746Y0031906D02*
X0022746Y0030405D01*
X0023497Y0029654D01*
X0023497Y0028053D02*
X0024998Y0028053D01*
X0025749Y0027302D01*
X0025749Y0025050D01*
X0027250Y0025050D02*
X0022746Y0025050D01*
X0022746Y0027302D01*
X0023497Y0028053D01*
X0025749Y0026551D02*
X0027250Y0028053D01*
X0027250Y0029654D02*
X0024247Y0032656D01*
X0023497Y0032656D01*
X0022746Y0031906D01*
X0027250Y0032656D02*
X0027250Y0029654D01*
X0055848Y0062050D02*
X0057433Y0062050D01*
X0057750Y0062367D01*
X0057750Y0063001D01*
X0057433Y0063318D01*
X0055848Y0063318D01*
X0056165Y0064260D02*
X0055848Y0064577D01*
X0055848Y0065211D01*
X0056165Y0065528D01*
X0056799Y0065211D02*
X0056799Y0064577D01*
X0056482Y0064260D01*
X0056165Y0064260D01*
X0055531Y0064894D02*
X0058067Y0064894D01*
X0057750Y0064577D02*
X0057750Y0065211D01*
X0057433Y0065528D01*
X0057116Y0065528D01*
X0056799Y0065211D01*
X0057433Y0064260D02*
X0057750Y0064577D01*
X0057750Y0066470D02*
X0057433Y0066470D01*
X0056165Y0067738D01*
X0055848Y0067738D01*
X0055848Y0066470D01*
X0069348Y0066470D02*
X0071250Y0066470D01*
X0071250Y0065528D02*
X0069348Y0065528D01*
X0069982Y0064894D01*
X0069348Y0064260D01*
X0071250Y0064260D01*
X0070933Y0063318D02*
X0071250Y0063001D01*
X0071250Y0062367D01*
X0070933Y0062050D01*
X0070616Y0062050D01*
X0070299Y0062367D01*
X0070299Y0063001D01*
X0070616Y0063318D01*
X0070933Y0063318D01*
X0070299Y0063001D02*
X0069982Y0063318D01*
X0069665Y0063318D01*
X0069348Y0063001D01*
X0069348Y0062367D01*
X0069665Y0062050D01*
X0069982Y0062050D01*
X0070299Y0062367D01*
X0070299Y0066470D02*
X0070299Y0067738D01*
X0069348Y0067738D02*
X0071250Y0067738D01*
X0071250Y0068680D02*
X0071250Y0069947D01*
X0071250Y0068680D02*
X0069982Y0069947D01*
X0069982Y0068680D01*
X0132746Y0070050D02*
X0132746Y0072302D01*
X0133497Y0073053D01*
X0134998Y0073053D01*
X0135749Y0072302D01*
X0135749Y0070050D01*
X0137250Y0070050D02*
X0132746Y0070050D01*
X0135749Y0071551D02*
X0137250Y0073053D01*
X0134998Y0074654D02*
X0134998Y0077656D01*
X0132746Y0076906D02*
X0134998Y0074654D01*
X0137250Y0076906D02*
X0132746Y0076906D01*
X0141246Y0078505D02*
X0141246Y0080006D01*
X0141997Y0080756D01*
X0144999Y0077754D01*
X0145750Y0078505D01*
X0145750Y0080006D01*
X0144999Y0080756D01*
X0141997Y0080756D01*
X0141246Y0082358D02*
X0145750Y0082358D01*
X0144249Y0082358D02*
X0142747Y0084610D01*
X0144249Y0082358D02*
X0145750Y0084610D01*
X0144999Y0077754D02*
X0141997Y0077754D01*
X0141246Y0078505D01*
X0141246Y0074651D02*
X0145750Y0074651D01*
X0145750Y0073150D02*
X0145750Y0076153D01*
X0142747Y0073150D02*
X0141246Y0074651D01*
X0152246Y0094550D02*
X0156750Y0094550D01*
X0156750Y0097553D01*
X0156750Y0099154D02*
X0156750Y0102156D01*
X0156750Y0103758D02*
X0156750Y0106010D01*
X0155999Y0106760D01*
X0152997Y0106760D01*
X0152246Y0106010D01*
X0152246Y0103758D01*
X0156750Y0103758D01*
X0154498Y0100655D02*
X0154498Y0099154D01*
X0152246Y0099154D02*
X0152246Y0102156D01*
X0152246Y0099154D02*
X0156750Y0099154D01*
X0160246Y0096802D02*
X0160246Y0094550D01*
X0164750Y0094550D01*
X0163249Y0094550D02*
X0163249Y0096802D01*
X0162498Y0097553D01*
X0160997Y0097553D01*
X0160246Y0096802D01*
X0163249Y0096051D02*
X0164750Y0097553D01*
X0163999Y0099154D02*
X0162498Y0099154D01*
X0161747Y0099905D01*
X0161747Y0101406D01*
X0162498Y0102156D01*
X0163249Y0102156D01*
X0163249Y0099154D01*
X0163999Y0099154D02*
X0164750Y0099905D01*
X0164750Y0101406D01*
X0163999Y0103758D02*
X0162498Y0103758D01*
X0161747Y0104508D01*
X0161747Y0106760D01*
X0160246Y0106760D02*
X0164750Y0106760D01*
X0164750Y0104508D01*
X0163999Y0103758D01*
X0156750Y0108362D02*
X0156750Y0111364D01*
X0156750Y0109863D02*
X0152246Y0109863D01*
X0153747Y0108362D01*
X0176246Y0107889D02*
X0176246Y0109390D01*
X0176997Y0110141D01*
X0177747Y0110141D01*
X0178498Y0109390D01*
X0179249Y0110141D01*
X0179999Y0110141D01*
X0180750Y0109390D01*
X0180750Y0107889D01*
X0179999Y0107138D01*
X0178498Y0108639D02*
X0178498Y0109390D01*
X0176997Y0107138D02*
X0176246Y0107889D01*
X0176997Y0111742D02*
X0176246Y0112493D01*
X0176246Y0113994D01*
X0176997Y0114745D01*
X0177747Y0114745D01*
X0178498Y0113994D01*
X0179249Y0114745D01*
X0179999Y0114745D01*
X0180750Y0113994D01*
X0180750Y0112493D01*
X0179999Y0111742D01*
X0178498Y0113243D02*
X0178498Y0113994D01*
X0176997Y0116346D02*
X0176246Y0117097D01*
X0176246Y0118598D01*
X0176997Y0119349D01*
X0179999Y0116346D01*
X0180750Y0117097D01*
X0180750Y0118598D01*
X0179999Y0119349D01*
X0176997Y0119349D01*
X0176997Y0116346D02*
X0179999Y0116346D01*
X0184746Y0117094D02*
X0184746Y0114842D01*
X0189250Y0114842D01*
X0187749Y0114842D02*
X0187749Y0117094D01*
X0186998Y0117845D01*
X0185497Y0117845D01*
X0184746Y0117094D01*
X0187749Y0116343D02*
X0189250Y0117845D01*
X0189250Y0119446D02*
X0189250Y0122449D01*
X0189250Y0120947D02*
X0184746Y0120947D01*
X0186247Y0119446D01*
X0173500Y0151800D02*
X0171000Y0151800D01*
X0168500Y0154300D01*
X0166000Y0151800D02*
X0163500Y0151800D01*
X0149250Y0152562D02*
X0149250Y0150310D01*
X0148499Y0149560D01*
X0146247Y0149560D01*
X0146247Y0152562D02*
X0149250Y0152562D01*
X0149250Y0154164D02*
X0144746Y0154164D01*
X0144746Y0157166D01*
X0145497Y0158050D02*
X0144746Y0158801D01*
X0144746Y0160302D01*
X0145497Y0161053D01*
X0148499Y0158050D01*
X0149250Y0158801D01*
X0149250Y0160302D01*
X0148499Y0161053D01*
X0145497Y0161053D01*
X0145497Y0158050D02*
X0148499Y0158050D01*
X0146998Y0155665D02*
X0146998Y0154164D01*
X0149250Y0147958D02*
X0149250Y0144956D01*
X0149250Y0146457D02*
X0144746Y0146457D01*
X0146247Y0144956D01*
X0148499Y0143405D02*
X0149250Y0143405D01*
X0149250Y0142654D01*
X0148499Y0142654D01*
X0148499Y0143405D01*
X0148499Y0141053D02*
X0149250Y0140302D01*
X0149250Y0138801D01*
X0148499Y0138050D01*
X0145497Y0141053D01*
X0148499Y0141053D01*
X0145497Y0141053D02*
X0144746Y0140302D01*
X0144746Y0138801D01*
X0145497Y0138050D01*
X0148499Y0138050D01*
X0132250Y0138801D02*
X0131499Y0138050D01*
X0128497Y0138050D01*
X0127746Y0138801D01*
X0127746Y0140302D01*
X0128497Y0141053D01*
X0128497Y0142654D02*
X0127746Y0143405D01*
X0127746Y0144906D01*
X0128497Y0145656D01*
X0129247Y0145656D01*
X0132250Y0142654D01*
X0132250Y0145656D01*
X0131499Y0141053D02*
X0132250Y0140302D01*
X0132250Y0138801D01*
X0116499Y0155332D02*
X0113497Y0155332D01*
X0112746Y0156083D01*
X0112746Y0157584D01*
X0113497Y0158335D01*
X0116499Y0155332D01*
X0117250Y0156083D01*
X0117250Y0157584D01*
X0116499Y0158335D01*
X0113497Y0158335D01*
X0116499Y0159936D02*
X0116499Y0160687D01*
X0117250Y0160687D01*
X0117250Y0159936D01*
X0116499Y0159936D01*
X0117250Y0162238D02*
X0117250Y0165241D01*
X0117250Y0163739D02*
X0112746Y0163739D01*
X0114247Y0162238D01*
X0114247Y0166842D02*
X0116499Y0166842D01*
X0117250Y0167593D01*
X0117250Y0169845D01*
X0114247Y0169845D01*
X0114998Y0171446D02*
X0114998Y0172947D01*
X0117250Y0171446D02*
X0112746Y0171446D01*
X0112746Y0174449D01*
X0108857Y0170952D02*
X0107590Y0170952D01*
X0108223Y0170952D02*
X0108223Y0169050D01*
X0106647Y0169050D02*
X0105380Y0169050D01*
X0105380Y0170952D01*
X0106647Y0170952D01*
X0106014Y0170001D02*
X0105380Y0170001D01*
X0104437Y0169684D02*
X0104437Y0169367D01*
X0104121Y0169050D01*
X0103487Y0169050D01*
X0103170Y0169367D01*
X0103487Y0170001D02*
X0104121Y0170001D01*
X0104437Y0169684D01*
X0104437Y0170635D02*
X0104121Y0170952D01*
X0103487Y0170952D01*
X0103170Y0170635D01*
X0103170Y0170318D01*
X0103487Y0170001D01*
X0102228Y0170952D02*
X0100960Y0170952D01*
X0100960Y0169050D01*
X0102228Y0169050D01*
X0101594Y0170001D02*
X0100960Y0170001D01*
X0100018Y0170001D02*
X0099701Y0169684D01*
X0098750Y0169684D01*
X0099384Y0169684D02*
X0100018Y0169050D01*
X0100018Y0170001D02*
X0100018Y0170635D01*
X0099701Y0170952D01*
X0098750Y0170952D01*
X0098750Y0169050D01*
X0099067Y0172550D02*
X0099701Y0172550D01*
X0100018Y0172867D01*
X0100018Y0174452D01*
X0100960Y0174135D02*
X0101277Y0174452D01*
X0101911Y0174452D01*
X0102228Y0174135D01*
X0101911Y0173501D02*
X0101277Y0173501D01*
X0100960Y0173818D01*
X0100960Y0174135D01*
X0101594Y0174769D02*
X0101594Y0172233D01*
X0101277Y0172550D02*
X0101911Y0172550D01*
X0102228Y0172867D01*
X0102228Y0173184D01*
X0101911Y0173501D01*
X0100960Y0172867D02*
X0101277Y0172550D01*
X0103170Y0173501D02*
X0104437Y0173501D01*
X0104121Y0172550D02*
X0104121Y0174452D01*
X0103170Y0173501D01*
X0099067Y0172550D02*
X0098750Y0172867D01*
X0098750Y0174452D01*
X0100254Y0180300D02*
X0116746Y0180300D01*
X0121250Y0182050D02*
X0121250Y0186554D01*
X0122751Y0185053D01*
X0124253Y0186554D01*
X0124253Y0182050D01*
X0125854Y0182801D02*
X0126605Y0182050D01*
X0128106Y0182050D01*
X0128856Y0182801D01*
X0129247Y0182238D02*
X0127746Y0183739D01*
X0132250Y0183739D01*
X0132710Y0183551D02*
X0130458Y0183551D01*
X0130458Y0182050D02*
X0130458Y0186554D01*
X0132710Y0186554D01*
X0133460Y0185803D01*
X0133460Y0184302D01*
X0132710Y0183551D01*
X0132250Y0182238D02*
X0132250Y0185241D01*
X0131499Y0186842D02*
X0129247Y0186842D01*
X0128856Y0185803D02*
X0128106Y0186554D01*
X0126605Y0186554D01*
X0125854Y0185803D01*
X0125854Y0182801D01*
X0128497Y0178335D02*
X0131499Y0175332D01*
X0132250Y0176083D01*
X0132250Y0177584D01*
X0131499Y0178335D01*
X0128497Y0178335D01*
X0127746Y0177584D01*
X0127746Y0176083D01*
X0128497Y0175332D01*
X0131499Y0175332D01*
X0134250Y0174449D02*
X0134250Y0171446D01*
X0134250Y0172947D02*
X0129746Y0172947D01*
X0131247Y0171446D01*
X0130497Y0169845D02*
X0129746Y0169094D01*
X0129746Y0167593D01*
X0130497Y0166842D01*
X0133499Y0166842D01*
X0134250Y0167593D01*
X0134250Y0169094D01*
X0133499Y0169845D01*
X0129998Y0165656D02*
X0129998Y0162654D01*
X0127746Y0164906D01*
X0132250Y0164906D01*
X0131499Y0161053D02*
X0132250Y0160302D01*
X0132250Y0158801D01*
X0131499Y0158050D01*
X0128497Y0158050D01*
X0127746Y0158801D01*
X0127746Y0160302D01*
X0128497Y0161053D01*
X0144746Y0166457D02*
X0149250Y0166457D01*
X0149250Y0164956D02*
X0149250Y0167958D01*
X0148499Y0169560D02*
X0149250Y0170310D01*
X0149250Y0172562D01*
X0146247Y0172562D01*
X0146998Y0174164D02*
X0146998Y0175665D01*
X0144746Y0174164D02*
X0144746Y0177166D01*
X0144746Y0174164D02*
X0149250Y0174164D01*
X0148499Y0169560D02*
X0146247Y0169560D01*
X0144746Y0166457D02*
X0146247Y0164956D01*
X0148499Y0163405D02*
X0148499Y0162654D01*
X0149250Y0162654D01*
X0149250Y0163405D01*
X0148499Y0163405D01*
X0148874Y0182050D02*
X0151876Y0185053D01*
X0151876Y0185803D01*
X0151125Y0186554D01*
X0149624Y0186554D01*
X0148874Y0185803D01*
X0148499Y0186842D02*
X0149250Y0187593D01*
X0149250Y0189094D01*
X0148499Y0189845D01*
X0148499Y0191446D02*
X0149250Y0192197D01*
X0149250Y0193698D01*
X0148499Y0194449D01*
X0147749Y0194449D01*
X0146998Y0193698D01*
X0146998Y0192947D01*
X0146998Y0193698D02*
X0146247Y0194449D01*
X0145497Y0194449D01*
X0144746Y0193698D01*
X0144746Y0192197D01*
X0145497Y0191446D01*
X0145497Y0189845D02*
X0144746Y0189094D01*
X0144746Y0187593D01*
X0145497Y0186842D01*
X0148499Y0186842D01*
X0147272Y0185803D02*
X0144270Y0182801D01*
X0145020Y0182050D01*
X0146522Y0182050D01*
X0147272Y0182801D01*
X0147272Y0185803D01*
X0146522Y0186554D01*
X0145020Y0186554D01*
X0144270Y0185803D01*
X0144270Y0182801D01*
X0142668Y0185803D02*
X0139666Y0182801D01*
X0139666Y0182050D01*
X0138064Y0182050D02*
X0135062Y0182050D01*
X0136563Y0182050D02*
X0136563Y0186554D01*
X0135062Y0185053D01*
X0132250Y0187593D02*
X0132250Y0189845D01*
X0129247Y0189845D01*
X0128856Y0190301D02*
X0128856Y0191051D01*
X0128106Y0191802D01*
X0126605Y0191802D01*
X0125854Y0192553D01*
X0125854Y0193303D01*
X0126605Y0194054D01*
X0128106Y0194054D01*
X0128856Y0193303D01*
X0129998Y0192947D02*
X0129998Y0191446D01*
X0130458Y0190301D02*
X0131208Y0189550D01*
X0132710Y0189550D01*
X0133460Y0190301D01*
X0133460Y0191051D01*
X0132710Y0191802D01*
X0131959Y0191802D01*
X0132250Y0191446D02*
X0127746Y0191446D01*
X0127746Y0194449D01*
X0127355Y0194804D02*
X0127355Y0188799D01*
X0126605Y0189550D02*
X0128106Y0189550D01*
X0128856Y0190301D01*
X0126605Y0189550D02*
X0125854Y0190301D01*
X0124253Y0190301D02*
X0124253Y0194054D01*
X0121250Y0194054D02*
X0121250Y0190301D01*
X0122001Y0189550D01*
X0123502Y0189550D01*
X0124253Y0190301D01*
X0130458Y0193303D02*
X0131208Y0194054D01*
X0132710Y0194054D01*
X0133460Y0193303D01*
X0133460Y0192553D01*
X0132710Y0191802D01*
X0132250Y0187593D02*
X0131499Y0186842D01*
X0131499Y0180687D02*
X0132250Y0180687D01*
X0132250Y0179936D01*
X0131499Y0179936D01*
X0131499Y0180687D01*
X0139666Y0186554D02*
X0142668Y0186554D01*
X0142668Y0185803D01*
X0148874Y0182050D02*
X0151876Y0182050D01*
X0118952Y0185800D02*
X0117373Y0185800D01*
X0109627Y0185800D02*
X0107373Y0185800D01*
X0100254Y0180300D02*
X0100101Y0180499D01*
X0099953Y0180701D01*
X0099810Y0180906D01*
X0099672Y0181115D01*
X0099539Y0181327D01*
X0099411Y0181542D01*
X0099289Y0181760D01*
X0099171Y0181981D01*
X0099059Y0182205D01*
X0098952Y0182431D01*
X0098851Y0182660D01*
X0098755Y0182891D01*
X0098664Y0183125D01*
X0098579Y0183360D01*
X0098500Y0183598D01*
X0098427Y0183837D01*
X0098359Y0184078D01*
X0098297Y0184320D01*
X0098241Y0184564D01*
X0098190Y0184810D01*
X0098146Y0185056D01*
X0098107Y0185303D01*
X0098075Y0185551D01*
X0098048Y0185800D01*
X0099627Y0185800D01*
X0111596Y0196833D02*
X0111838Y0196755D01*
X0112078Y0196671D01*
X0112316Y0196582D01*
X0112552Y0196486D01*
X0112786Y0196385D01*
X0113017Y0196279D01*
X0113245Y0196166D01*
X0113471Y0196049D01*
X0113694Y0195926D01*
X0113913Y0195797D01*
X0114130Y0195663D01*
X0114343Y0195524D01*
X0114553Y0195380D01*
X0114759Y0195231D01*
X0114961Y0195077D01*
X0115160Y0194918D01*
X0115355Y0194754D01*
X0115546Y0194585D01*
X0115732Y0194412D01*
X0115915Y0194235D01*
X0116093Y0194053D01*
X0116266Y0193867D01*
X0116435Y0193676D01*
X0116599Y0193482D01*
X0116759Y0193284D01*
X0116914Y0193082D01*
X0117063Y0192876D01*
X0117208Y0192667D01*
X0117348Y0192454D01*
X0117482Y0192238D01*
X0117611Y0192018D01*
X0117735Y0191796D01*
X0117854Y0191571D01*
X0117966Y0191343D01*
X0118074Y0191112D01*
X0118175Y0190879D01*
X0118271Y0190643D01*
X0118362Y0190405D01*
X0118446Y0190165D01*
X0118525Y0189923D01*
X0118598Y0189679D01*
X0118664Y0189433D01*
X0118725Y0189186D01*
X0118780Y0188938D01*
X0118829Y0188688D01*
X0118872Y0188437D01*
X0118908Y0188185D01*
X0118939Y0187933D01*
X0118963Y0187679D01*
X0118981Y0187426D01*
X0118993Y0187171D01*
X0118999Y0186917D01*
X0118999Y0186662D01*
X0118993Y0186408D01*
X0118980Y0186154D01*
X0118961Y0185900D01*
X0118936Y0185647D01*
X0118905Y0185394D01*
X0118868Y0185142D01*
X0118825Y0184892D01*
X0118776Y0184642D01*
X0118721Y0184393D01*
X0118659Y0184146D01*
X0118592Y0183901D01*
X0118519Y0183657D01*
X0118440Y0183415D01*
X0118355Y0183176D01*
X0118264Y0182938D01*
X0118167Y0182702D01*
X0118065Y0182469D01*
X0117957Y0182239D01*
X0117844Y0182011D01*
X0117725Y0181786D01*
X0117601Y0181564D01*
X0117472Y0181345D01*
X0117337Y0181129D01*
X0117197Y0180916D01*
X0117051Y0180707D01*
X0116901Y0180502D01*
X0116746Y0180300D01*
X0098048Y0185800D02*
X0098026Y0186055D01*
X0098011Y0186311D01*
X0098003Y0186567D01*
X0098000Y0186824D01*
X0098004Y0187080D01*
X0098014Y0187336D01*
X0098030Y0187592D01*
X0098052Y0187847D01*
X0098081Y0188102D01*
X0098116Y0188356D01*
X0098157Y0188609D01*
X0098204Y0188861D01*
X0098258Y0189111D01*
X0098317Y0189360D01*
X0098383Y0189608D01*
X0098454Y0189854D01*
X0098532Y0190099D01*
X0098615Y0190341D01*
X0098704Y0190581D01*
X0098800Y0190819D01*
X0098901Y0191055D01*
X0099007Y0191288D01*
X0099120Y0191518D01*
X0099238Y0191746D01*
X0099361Y0191970D01*
X0099490Y0192192D01*
X0099624Y0192410D01*
X0099764Y0192625D01*
X0099909Y0192836D01*
X0100059Y0193044D01*
X0100213Y0193248D01*
X0100373Y0193449D01*
X0100538Y0193645D01*
X0100707Y0193837D01*
X0100882Y0194026D01*
X0101060Y0194209D01*
X0101243Y0194389D01*
X0101431Y0194564D01*
X0101622Y0194734D01*
X0101818Y0194899D01*
X0102018Y0195060D01*
X0102221Y0195216D01*
X0102428Y0195366D01*
X0102639Y0195512D01*
X0102854Y0195653D01*
X0103071Y0195788D01*
X0103292Y0195918D01*
X0103516Y0196042D01*
X0103743Y0196161D01*
X0103973Y0196274D01*
X0104206Y0196382D01*
X0104441Y0196484D01*
X0104679Y0196580D01*
X0104918Y0196670D01*
X0105160Y0196755D01*
X0105404Y0196833D01*
X0078500Y0169300D02*
X0081000Y0166800D01*
X0083500Y0166800D01*
X0076000Y0166800D02*
X0073500Y0166800D01*
X0188750Y0159452D02*
X0188750Y0157867D01*
X0189067Y0157550D01*
X0189701Y0157550D01*
X0190018Y0157867D01*
X0190018Y0159452D01*
X0190960Y0159135D02*
X0191277Y0159452D01*
X0191911Y0159452D01*
X0192228Y0159135D01*
X0191911Y0158501D02*
X0191277Y0158501D01*
X0190960Y0158818D01*
X0190960Y0159135D01*
X0191594Y0159769D02*
X0191594Y0157233D01*
X0191911Y0157550D02*
X0192228Y0157867D01*
X0192228Y0158184D01*
X0191911Y0158501D01*
X0191911Y0157550D02*
X0191277Y0157550D01*
X0190960Y0157867D01*
X0191277Y0155952D02*
X0190960Y0155635D01*
X0190960Y0155318D01*
X0191277Y0155001D01*
X0191911Y0155001D01*
X0192228Y0154684D01*
X0192228Y0154367D01*
X0191911Y0154050D01*
X0191277Y0154050D01*
X0190960Y0154367D01*
X0190018Y0154367D02*
X0190018Y0155952D01*
X0191277Y0155952D02*
X0191911Y0155952D01*
X0192228Y0155635D01*
X0193170Y0155952D02*
X0193170Y0154050D01*
X0194437Y0154050D01*
X0195380Y0154050D02*
X0195380Y0155952D01*
X0196330Y0155952D01*
X0196647Y0155635D01*
X0196647Y0155001D01*
X0196330Y0154684D01*
X0195380Y0154684D01*
X0196014Y0154684D02*
X0196647Y0154050D01*
X0194437Y0155952D02*
X0193170Y0155952D01*
X0193170Y0155001D02*
X0193804Y0155001D01*
X0194121Y0157550D02*
X0193487Y0157550D01*
X0193170Y0157867D01*
X0193170Y0158501D02*
X0193804Y0158818D01*
X0194121Y0158818D01*
X0194437Y0158501D01*
X0194437Y0157867D01*
X0194121Y0157550D01*
X0193170Y0158501D02*
X0193170Y0159452D01*
X0194437Y0159452D01*
X0188750Y0155952D02*
X0188750Y0154367D01*
X0189067Y0154050D01*
X0189701Y0154050D01*
X0190018Y0154367D01*
X0193165Y0065528D02*
X0192848Y0065211D01*
X0192848Y0064577D01*
X0193165Y0064260D01*
X0192848Y0063318D02*
X0192848Y0062684D01*
X0192848Y0063001D02*
X0194433Y0063001D01*
X0194750Y0062684D01*
X0194750Y0062367D01*
X0194433Y0062050D01*
X0194750Y0064260D02*
X0193482Y0065528D01*
X0193165Y0065528D01*
X0194750Y0065528D02*
X0194750Y0064260D01*
X0179856Y0052554D02*
X0176854Y0052554D01*
X0176854Y0050302D01*
X0178355Y0051053D01*
X0179106Y0051053D01*
X0179856Y0050302D01*
X0179856Y0048801D01*
X0179106Y0048050D01*
X0177605Y0048050D01*
X0176854Y0048801D01*
X0175253Y0048801D02*
X0174502Y0048050D01*
X0173001Y0048050D01*
X0172250Y0048801D01*
X0172250Y0051803D01*
X0173001Y0052554D01*
X0174502Y0052554D01*
X0175253Y0051803D01*
X0174502Y0032554D02*
X0173001Y0032554D01*
X0172250Y0031803D01*
X0172250Y0028801D01*
X0173001Y0028050D01*
X0174502Y0028050D01*
X0175253Y0028801D01*
X0176854Y0028801D02*
X0177605Y0028050D01*
X0179106Y0028050D01*
X0179856Y0028801D01*
X0179856Y0029551D01*
X0179106Y0030302D01*
X0176854Y0030302D01*
X0176854Y0028801D01*
X0176854Y0030302D02*
X0178355Y0031803D01*
X0179856Y0032554D01*
X0175253Y0031803D02*
X0174502Y0032554D01*
X0200250Y0033553D02*
X0201751Y0035054D01*
X0201751Y0030550D01*
X0200250Y0030550D02*
X0203253Y0030550D01*
X0204854Y0031301D02*
X0207856Y0034303D01*
X0207856Y0031301D01*
X0207106Y0030550D01*
X0205605Y0030550D01*
X0204854Y0031301D01*
X0204854Y0034303D01*
X0205605Y0035054D01*
X0207106Y0035054D01*
X0207856Y0034303D01*
X0209458Y0033553D02*
X0209458Y0031301D01*
X0210208Y0030550D01*
X0212460Y0030550D01*
X0212460Y0033553D01*
X0214062Y0032802D02*
X0215563Y0032802D01*
X0214062Y0030550D02*
X0214062Y0035054D01*
X0217064Y0035054D01*
X0217064Y0015054D02*
X0214062Y0015054D01*
X0214062Y0010550D01*
X0212460Y0010550D02*
X0212460Y0013553D01*
X0214062Y0012802D02*
X0215563Y0012802D01*
X0212460Y0010550D02*
X0210208Y0010550D01*
X0209458Y0011301D01*
X0209458Y0013553D01*
X0207856Y0014303D02*
X0204854Y0011301D01*
X0205605Y0010550D01*
X0207106Y0010550D01*
X0207856Y0011301D01*
X0207856Y0014303D01*
X0207106Y0015054D01*
X0205605Y0015054D01*
X0204854Y0014303D01*
X0204854Y0011301D01*
X0203253Y0010550D02*
X0200250Y0010550D01*
X0201751Y0010550D02*
X0201751Y0015054D01*
X0200250Y0013553D01*
D15*
X0185500Y0016800D03*
X0185500Y0036800D03*
D16*
X0143500Y0067600D03*
X0143500Y0096000D03*
X0178500Y0097600D03*
X0178500Y0126000D03*
X0048500Y0051000D03*
X0033500Y0051000D03*
X0033500Y0022600D03*
X0048500Y0022600D03*
D17*
X0105145Y0049616D02*
X0105145Y0052769D01*
X0106196Y0053819D01*
X0108297Y0053819D01*
X0109348Y0052769D01*
X0109348Y0049616D01*
X0111450Y0049616D02*
X0105145Y0049616D01*
X0105145Y0056061D02*
X0105145Y0058163D01*
X0105145Y0057112D02*
X0111450Y0057112D01*
X0111450Y0056061D02*
X0111450Y0058163D01*
X0110399Y0060358D02*
X0111450Y0061409D01*
X0111450Y0063511D01*
X0110399Y0064562D01*
X0110399Y0066804D02*
X0111450Y0067855D01*
X0111450Y0069957D01*
X0110399Y0071007D01*
X0109348Y0071007D01*
X0108297Y0069957D01*
X0108297Y0068906D01*
X0108297Y0069957D02*
X0107246Y0071007D01*
X0106196Y0071007D01*
X0105145Y0069957D01*
X0105145Y0067855D01*
X0106196Y0066804D01*
X0106196Y0064562D02*
X0105145Y0063511D01*
X0105145Y0061409D01*
X0106196Y0060358D01*
X0110399Y0060358D01*
X0111450Y0073249D02*
X0107246Y0077453D01*
X0106196Y0077453D01*
X0105145Y0076402D01*
X0105145Y0074300D01*
X0106196Y0073249D01*
X0111450Y0073249D02*
X0111450Y0077453D01*
X0111450Y0079695D02*
X0105145Y0079695D01*
X0107246Y0081797D01*
X0105145Y0083898D01*
X0111450Y0083898D01*
X0111450Y0086140D02*
X0105145Y0090344D01*
X0106196Y0092586D02*
X0105145Y0093637D01*
X0105145Y0095739D01*
X0106196Y0096789D01*
X0107246Y0096789D01*
X0111450Y0092586D01*
X0111450Y0096789D01*
X0110399Y0099031D02*
X0111450Y0100082D01*
X0111450Y0102184D01*
X0110399Y0103235D01*
X0108297Y0103235D01*
X0107246Y0102184D01*
X0107246Y0101133D01*
X0108297Y0099031D01*
X0105145Y0099031D01*
X0105145Y0103235D01*
X0106196Y0105477D02*
X0105145Y0106528D01*
X0105145Y0108630D01*
X0106196Y0109680D01*
X0110399Y0105477D01*
X0111450Y0106528D01*
X0111450Y0108630D01*
X0110399Y0109680D01*
X0106196Y0109680D01*
X0105145Y0111922D02*
X0105145Y0116126D01*
X0107246Y0118368D02*
X0105145Y0120470D01*
X0111450Y0120470D01*
X0111450Y0122571D02*
X0111450Y0118368D01*
X0108297Y0114024D02*
X0108297Y0111922D01*
X0105145Y0111922D02*
X0111450Y0111922D01*
X0110399Y0105477D02*
X0106196Y0105477D01*
X0111450Y0090344D02*
X0105145Y0086140D01*
X0106196Y0124813D02*
X0105145Y0125864D01*
X0105145Y0127966D01*
X0106196Y0129017D01*
X0107246Y0129017D01*
X0111450Y0124813D01*
X0111450Y0129017D01*
X0110399Y0131259D02*
X0109348Y0131259D01*
X0108297Y0132310D01*
X0108297Y0134412D01*
X0109348Y0135462D01*
X0110399Y0135462D01*
X0111450Y0134412D01*
X0111450Y0132310D01*
X0110399Y0131259D01*
X0108297Y0132310D02*
X0107246Y0131259D01*
X0106196Y0131259D01*
X0105145Y0132310D01*
X0105145Y0134412D01*
X0106196Y0135462D01*
X0107246Y0135462D01*
X0108297Y0134412D01*
X0108297Y0137704D02*
X0108297Y0140857D01*
X0109348Y0141908D01*
X0110399Y0141908D01*
X0111450Y0140857D01*
X0111450Y0137704D01*
X0105145Y0137704D01*
X0105145Y0140857D01*
X0106196Y0141908D01*
X0107246Y0141908D01*
X0108297Y0140857D01*
X0107397Y0151599D02*
X0107397Y0160006D01*
X0106346Y0158955D02*
X0105295Y0157904D01*
X0105295Y0156854D01*
X0106346Y0155803D01*
X0108448Y0155803D01*
X0109499Y0154752D01*
X0109499Y0153701D01*
X0108448Y0152650D01*
X0106346Y0152650D01*
X0105295Y0153701D01*
X0103054Y0153701D02*
X0102003Y0152650D01*
X0099901Y0152650D01*
X0098850Y0153701D01*
X0098850Y0158955D01*
X0103054Y0158955D02*
X0103054Y0153701D01*
X0106346Y0158955D02*
X0108448Y0158955D01*
X0109499Y0157904D01*
X0111741Y0156854D02*
X0113843Y0158955D01*
X0113843Y0152650D01*
X0111741Y0152650D02*
X0115945Y0152650D01*
D18*
X0090429Y0183335D02*
X0090429Y0200265D01*
X0056571Y0200265D01*
X0056571Y0183335D01*
X0090429Y0183335D01*
X0081374Y0199674D02*
X0081374Y0207548D01*
X0079406Y0207548D01*
X0077437Y0205580D01*
X0075469Y0207548D01*
X0073500Y0207548D01*
X0073500Y0199674D01*
D19*
X0068500Y0176800D02*
X0088500Y0176800D01*
X0091000Y0171800D01*
X0093500Y0169300D01*
X0093500Y0164300D01*
X0086000Y0156800D01*
X0071000Y0156800D01*
X0063500Y0164300D01*
X0063500Y0169300D01*
X0066000Y0171800D01*
X0068500Y0176800D01*
X0153500Y0154300D02*
X0153500Y0149300D01*
X0161000Y0141800D01*
X0176000Y0141800D01*
X0183500Y0149300D01*
X0183500Y0154300D01*
X0181000Y0156800D01*
X0178500Y0161800D01*
X0158500Y0161800D01*
X0156000Y0156800D01*
X0153500Y0154300D01*
X0068500Y0089300D02*
X0068500Y0064300D01*
X0066000Y0061800D01*
X0061000Y0061800D01*
X0058500Y0064300D01*
X0058500Y0089300D01*
X0061000Y0091800D01*
X0066000Y0091800D01*
X0068500Y0089300D01*
M02*
