%
M48
M72
T01C0.02362
T02C0.03150
T03C0.03200
T04C0.03937
T05C0.04000
T06C0.07480
%
T01
X143500Y46800
X103500Y141800
X48500Y146800
X43500Y141800
T02
X30350Y166446
X27201Y161721
X33500Y161721
X36650Y166446
X39799Y161721
X65626Y191800
X73500Y191800
X81374Y191800
T03
X93500Y146800
X93500Y136800
X93500Y126800
X93500Y116800
X93500Y106800
X93500Y96800
X93500Y86800
X93500Y76800
X93500Y66800
X93500Y56800
X93500Y46800
X93500Y36800
X93500Y26800
X93500Y16800
X123500Y16800
X123500Y26800
X123500Y36800
X123500Y46800
X123500Y56800
X123500Y66800
X123500Y76800
X123500Y86800
X123500Y96800
X123500Y106800
X123500Y116800
X123500Y126800
X123500Y136800
X123500Y146800
X123500Y161800
X123500Y171800
X138500Y171800
X138500Y181800
X138500Y191800
X113500Y186800
X108500Y194300
X103500Y186800
X138500Y161800
X138500Y151800
X138500Y141800
X178500Y131800
X143500Y101800
X158500Y91800
X158500Y81800
X178500Y91800
X143500Y61800
X173500Y36800
X173500Y16800
X193500Y16800
X193500Y36800
X48500Y16800
X33500Y16800
X33500Y56800
X33500Y66800
X33500Y76800
X48500Y56800
T04
X57752Y191800
X89248Y191800
T05
X68500Y166800
X88500Y166800
X158500Y151800
X178500Y151800
X200500Y136800
X200500Y126800
X200500Y116800
X200500Y106800
X200500Y96800
X200500Y86800
X200500Y76800
X200500Y66800
X63500Y66800
X63500Y76800
X63500Y86800
X13500Y86800
X13500Y76800
X13500Y66800
X13500Y56800
X13500Y46800
X13500Y36800
X13500Y26800
X13500Y16800
X13500Y96800
X13500Y106800
X13500Y116800
X13500Y126800
X13500Y136800
T06
X19130Y181800
X47870Y181800
M30
